<?xml version="1.0" encoding="utf-8"?>
<!-- Generator: Adobe Illustrator 19.0.0, SVG Export Plug-In . SVG Version: 6.00 Build 0)  -->
<svg version="1.1" id="Layer_1" xmlns="http://www.w3.org/2000/svg" xmlns:xlink="http://www.w3.org/1999/xlink" x="0px" y="0px"
	 viewBox="65 200 370 100" style="enable-background:new 0 0 500 500;" xml:space="preserve">
<style type="text/css">
	.st0{fill:#176FC1;}
	.st1{fill:#FFFFFF;}
	.st2{fill:#CE0F3E;}
</style>
<g id="g4879" transform="translate(165.189,569.68201)">
</g>
<g id="g4883" transform="translate(183.83,565.49001)">
</g>
<g id="g4887" transform="translate(188.7399,565.52499)">
</g>
<g id="g4891" transform="translate(198.812,568.894)">
</g>
<g id="g4895" transform="translate(210.17101,563.5731)">
</g>
<g id="g4899" transform="translate(216.716,565.472)">
</g>
<g id="g4903" transform="translate(232.33,562.19099)">
</g>
<g id="g4907" transform="translate(238.875,570.793)">
</g>
<g id="g4911" transform="translate(252.371,562.427)">
</g>
<g id="g4915" transform="translate(260.412,562.19099)">
</g>
<g id="g4919" transform="translate(270.36301,562.716)">
</g>
<g id="g4923" transform="translate(283.427,565.49001)">
</g>
<g id="g4927" transform="translate(296.871,563.5731)">
</g>
<g id="g4931" transform="translate(309.2789,562.19099)">
</g>
<g id="g4935" transform="translate(322.37289,565.778)">
</g>
<g id="g4939" transform="translate(333.005,562.427)">
</g>
<g id="g4943" transform="translate(343.9879,563.5731)">
</g>
<g id="g4947" transform="translate(349.09689,568.2291)">
</g>
<g id="g4951" transform="translate(355.91,565.778)">
</g>
<g id="g4955" transform="translate(366.35001,565.778)">
</g>
<g id="g4959" transform="translate(371.0099,565.52499)">
</g>
<g id="g4963" transform="translate(388.89999,565.49001)">
</g>
<g id="g4967" transform="translate(397.1898,565.534)">
</g>
<g id="g4971" transform="translate(407.74001,568.2291)">
</g>
<g id="g4975" transform="translate(414.75,565.778)">
</g>
<g id="g4979" transform="translate(421.78,565.778)">
</g>
<g id="g4983" transform="translate(435.0601,565.332)">
</g>
<g id="g4987" transform="translate(439.6199,568.2291)">
</g>
<g id="g4991" transform="translate(445.6899,559.347)">
</g>
<g id="g4995" transform="translate(450.74001,559.347)">
</g>
<g id="g4999" transform="translate(455.8,559.347)">
</g>
<g id="g5003" transform="translate(189.476,548.326)">
</g>
<g id="g5007" transform="translate(198.507,544.492)">
</g>
<g id="g5011" transform="translate(210.14391,542.8331)">
</g>
<g id="g5015" transform="translate(217.093,544.356)">
</g>
<g id="g5019" transform="translate(222.298,544.492)">
</g>
<g id="g5023" transform="translate(229.4509,549.08299)">
</g>
<g id="g5027" transform="translate(233.1479,547.439)">
</g>
<g id="g5031" transform="translate(241.369,542.09)">
</g>
<g id="g5035" transform="translate(248.98399,541.63499)">
</g>
<g id="g5039" transform="translate(254.726,546.86301)">
</g>
<g id="g5043" transform="translate(259.94701,547.439)">
</g>
<g id="g5047" transform="translate(266.554,544.492)">
</g>
<g id="g5051" transform="translate(278.19299,542.8331)">
</g>
<g id="g5055" transform="translate(286.996,549.08299)">
</g>
<g id="g5059" transform="translate(294.2159,541.84)">
</g>
<g id="g5063" transform="translate(301.179,541.63499)">
</g>
<g id="g5067" transform="translate(309.79401,542.09)">
</g>
<g id="g5071" transform="translate(317.994,544.356)">
</g>
<g id="g5075" transform="translate(326.3199,546.86301)">
</g>
<g id="g5079" transform="translate(333.5851,544.492)">
</g>
<g id="g5083" transform="translate(344.935,540.211)">
</g>
<g id="g5087" transform="translate(356.39999,541.84)">
</g>
<g id="g5091" transform="translate(361.48,544.742)">
</g>
<g id="g5095" transform="translate(367.7,544.53)">
</g>
<g id="g5099" transform="translate(373.7101,544.492)">
</g>
<g id="g5103" transform="translate(380.9299,544.742)">
</g>
<g id="g5107" transform="translate(387.06979,543.39301)">
</g>
<g id="g5111" transform="translate(402.4398,541.63499)">
</g>
<g id="g5115" transform="translate(412.66991,542.8331)">
</g>
<g id="g5119" transform="translate(418.30991,544.742)">
</g>
<g id="g5123" transform="translate(427.52,541.84)">
</g>
<g id="g5127" transform="translate(436.52,539.173)">
</g>
<g id="g5131" transform="translate(232.431,594.843)">
</g>
<g id="g5135" transform="translate(244.57001,587.3521)">
</g>
<g id="g5139" transform="translate(255.552,588.49899)">
</g>
<g id="g5143" transform="translate(260.66389,593.15401)">
</g>
<g id="g5147" transform="translate(267.673,590.70399)">
</g>
<g id="g5151" transform="translate(277.062,587.116)">
</g>
<g id="g5155" transform="translate(283.69701,595.718)">
</g>
<g id="g5159" transform="translate(294.347,588.75301)">
</g>
<g id="g5163" transform="translate(307.8759,587.116)">
</g>
<g id="g5167" transform="translate(319.6909,588.49899)">
</g>
<g id="g5171" transform="translate(324.71201,595.718)">
</g>
<g id="g5175" transform="translate(341.18291,590.41499)">
</g>
<g id="g5179" transform="translate(349.48,590.459)">
</g>
<g id="g5183" transform="translate(357.5099,594.60699)">
</g>
<g id="g5187" transform="translate(371.3,588.49899)">
</g>
<g id="g5191" transform="translate(379.72,587.6411)">
</g>
<g id="g5195" transform="translate(385.37,593.819)">
</g>
<g id="g5199" transform="translate(393.78999,587.116)">
</g>
<g id="g5203" transform="translate(241.575,666.239)">
</g>
<g id="g5207" transform="translate(237.452,675.088)">
</g>
<g id="g5211" transform="translate(251.85201,661.412)">
</g>
<g id="g5215" transform="translate(266.6329,670.46201)">
</g>
<g id="g5219" transform="translate(261.22301,660.004)">
</g>
<g id="g5223" transform="translate(279.88699,670.46201)">
</g>
<g id="g5227" transform="translate(290.38499,662.619)">
</g>
<g id="g5231" transform="translate(293.80499,674.88699)">
</g>
<g id="g5235" transform="translate(299.05299,662.117)">
</g>
<g id="g5239" transform="translate(322.08099,670.46201)">
</g>
<g id="g5243" transform="translate(331.5919,670.46201)">
</g>
<g id="g5247" transform="translate(326.88699,674.686)">
</g>
<g id="g5251" transform="translate(334.952,659.6021)">
</g>
<g id="g5255" transform="translate(334.407,664.228)">
</g>
<g id="g5259" transform="translate(358.46001,670.46201)">
</g>
<g id="g5263" transform="translate(355.97,674.88699)">
</g>
<g id="g5267" transform="translate(364.16991,675.088)">
</g>
<g id="g5271" transform="translate(374.09,670.46201)">
</g>
<g id="g5275" transform="translate(380.14,667.94901)">
</g>
<g id="g5279" transform="translate(390.24001,670.46201)">
</g>
<g id="g5283" transform="translate(184.036,639.334)">
</g>
<g id="g5287" transform="translate(192.563,642.66901)">
</g>
<g id="g5291" transform="translate(186.9399,646.32001)">
</g>
<g id="g5295" transform="translate(199.422,636)">
</g>
<g id="g5299" transform="translate(209.647,637.58701)">
</g>
<g id="g5303" transform="translate(216.188,642.66901)">
</g>
<g id="g5307" transform="translate(215.3309,645.05)">
</g>
<g id="g5311" transform="translate(223.2059,636.07899)">
</g>
<g id="g5315" transform="translate(219.633,646.32001)">
</g>
<g id="g5319" transform="translate(241.465,642.66901)">
</g>
<g id="g5323" transform="translate(252.897,642.66901)">
</g>
<g id="g5327" transform="translate(249.34,634.174)">
</g>
<g id="g5331" transform="translate(260.67599,642.66901)">
</g>
<g id="g5335" transform="translate(268.282,646.32001)">
</g>
<g id="g5339" transform="translate(271.235,636)">
</g>
<g id="g5343" transform="translate(279.395,638.53999)">
</g>
<g id="g5347" transform="translate(286.85789,636)">
</g>
<g id="g5351" transform="translate(295.145,642.66901)">
</g>
<g id="g5355" transform="translate(300.95799,639.334)">
</g>
<g id="g5359" transform="translate(312.64101,636.07899)">
</g>
<g id="g5363" transform="translate(309.069,646.32001)">
</g>
<g id="g5367" transform="translate(330.55299,639.334)">
</g>
<g id="g5371" transform="translate(339.0789,642.66901)">
</g>
<g id="g5375" transform="translate(342.41299,639.9691)">
</g>
<g id="g5379" transform="translate(359.8,642.66901)">
</g>
<g id="g5385" transform="translate(380.11,642.66901)">
</g>
<g id="g5389" transform="translate(379.8101,646.162)">
</g>
<g id="g5393" transform="translate(387.28,636.476)">
</g>
<g id="g5397" transform="translate(399.16,646.32001)">
</g>
<g id="g5401" transform="translate(407.63989,642.66901)">
</g>
<g id="g5407" transform="translate(420.59,642.66901)">
</g>
<g id="g5411" transform="translate(423.8699,635.52299)">
</g>
<g id="g5415" transform="translate(432.66,636.31599)">
</g>
<g id="g5419" transform="translate(436.78999,636.31599)">
</g>
<g id="g5423" transform="translate(440.92,636.31599)">
</g>
<g id="g5427" transform="translate(178.4949,618.164)">
</g>
<g id="g5431" transform="translate(185.71899,619.513)">
</g>
<g id="g5435" transform="translate(195.245,614.353)">
</g>
<g id="g5439" transform="translate(211.12399,618.164)">
</g>
<g id="g5443" transform="translate(213.903,624.991)">
</g>
<g id="g5447" transform="translate(218.506,615.306)">
</g>
<g id="g5451" transform="translate(230.383,625.14999)">
</g>
<g id="g5455" transform="translate(233.66991,613.718)">
</g>
<g id="g5459" transform="translate(247.6899,621.498)">
</g>
<g id="g5463" transform="translate(256.67599,618.164)">
</g>
<g id="g5467" transform="translate(265.567,619.19501)">
</g>
<g id="g5471" transform="translate(269.93401,616.894)">
</g>
<g id="g5475" transform="translate(280.651,619.513)">
</g>
<g id="g5479" transform="translate(288.6219,621.498)">
</g>
<g id="g5483" transform="translate(294.43201,618.164)">
</g>
<g id="g5487" transform="translate(302.95799,621.498)">
</g>
<g id="g5491" transform="translate(301.229,624.991)">
</g>
<g id="g5495" transform="translate(309.977,614.909)">
</g>
<g id="g5499" transform="translate(306.403,625.14999)">
</g>
<g id="g5503" transform="translate(327.88699,618.164)">
</g>
<g id="g5507" transform="translate(326.297,611.813)">
</g>
<g id="g5511" transform="translate(337.1429,625.14999)">
</g>
<g id="g5515" transform="translate(339.76199,614.353)">
</g>
<g id="g5519" transform="translate(347.25591,622.62601)">
</g>
<g id="g5523" transform="translate(354.08,617.37)">
</g>
<g id="g5527" transform="translate(367.39,621.498)">
</g>
<g id="g5531" transform="translate(376.52,621.498)">
</g>
<g id="g5535" transform="translate(387.6499,621.498)">
</g>
<g id="g5539" transform="translate(387.35001,624.991)">
</g>
<g id="g5543" transform="translate(398.0798,618.164)">
</g>
<g id="g5547" transform="translate(396.49001,611.813)">
</g>
<g id="g5551" transform="translate(404.92,616.894)">
</g>
<g id="g5555" transform="translate(414.5798,625.14999)">
</g>
<g id="g5559" transform="translate(421.42,621.498)">
</g>
<g id="g5563" transform="translate(423.4398,616.894)">
</g>
<g id="g5567" transform="translate(435.38,621.498)">
</g>
<g id="g5573" transform="translate(450.53,615.147)">
</g>
<g id="g5599" transform="translate(207.77901,46.272003)">
</g>
<g id="g5603" transform="translate(212.892,43.9431)">
</g>
<g id="g5607" transform="translate(218.605,46.272003)">
</g>
<g id="g5611" transform="translate(224.0089,46.272003)">
</g>
<g id="g5615" transform="translate(228.8,44.565994)">
</g>
<g id="g5619" transform="translate(230.7299,48.360992)">
</g>
<g id="g5623" transform="translate(241.59689,43.548996)">
</g>
<g id="g5627" transform="translate(243.994,45.639999)">
</g>
<g id="g5631" transform="translate(248.6989,43.9431)">
</g>
<g id="g5635" transform="translate(253.0759,42.727005)">
</g>
<g id="g5639" transform="translate(250.8669,48.360992)">
</g>
<g id="g5643" transform="translate(259.60699,45.639999)">
</g>
<g id="g5647" transform="translate(265.6129,44.123001)">
</g>
<g id="g5651" transform="translate(269.67101,40.806)">
</g>
<g id="g5655" transform="translate(275.269,47.611999)">
</g>
<g id="g5659" transform="translate(278.314,47.611999)">
</g>
<g id="g5663" transform="translate(282.455,42.727005)">
</g>
<g id="g5669" transform="translate(286.814,45.639999)">
</g>
<g id="g5673" transform="translate(291.345,42.106003)">
</g>
<g id="g5677" transform="translate(296.7709,44.218002)">
</g>
<g id="g5681" transform="translate(299.61501,47.253998)">
</g>
<g id="g5685" transform="translate(302.6069,47.253998)">
</g>
<g id="g5689" transform="translate(313.927,44.561005)">
</g>
<g id="g5693" transform="translate(319.41701,43.477997)">
</g>
<g id="g5697" transform="translate(321.162,41.738007)">
</g>
<g id="g5701" transform="translate(325.59689,41.738007)">
</g>
<g id="g5705" transform="translate(331.44299,41.738007)">
</g>
<g id="g5709" transform="translate(334.42909,41.738007)">
</g>
<g id="g5713" transform="translate(343.5089,41.738007)">
</g>
<g id="g5717" transform="translate(344.041,41.738007)">
</g>
<g id="g5721" transform="translate(349.52499,46.488998)">
</g>
<g id="g5725" transform="translate(354.28999,41.738007)">
</g>
<g id="g5729" transform="translate(356.96001,44.074997)">
</g>
<g id="g5733" transform="translate(365.2899,41.738007)">
</g>
<g id="g5737" transform="translate(368.28,44.074997)">
</g>
<g id="g5741" transform="translate(373.6199,46.488998)">
</g>
<g id="g5745" transform="translate(380.02,43.274002)">
</g>
<g id="g5751" transform="translate(386.53,41.738007)">
</g>
<g id="g5755" transform="translate(394.36,43.477997)">
</g>
<g id="g5759" transform="translate(396.11,41.738007)">
</g>
<g id="g5763" transform="translate(404.50999,41.738007)">
</g>
<g id="g5767" transform="translate(405.89,42.830994)">
</g>
<g id="g5771" transform="translate(411.88,41.738007)">
</g>
<g id="g5775" transform="translate(415.22,41.738007)">
</g>
<g id="g6195" transform="translate(44.036896,729.52789)">
</g>
<g id="g6199" transform="translate(54.044006,726.9967)">
</g>
<g id="g6203" transform="translate(60.934906,726.9967)">
</g>
<g id="g6207" transform="translate(64.274994,728.47321)">
</g>
<g id="g6211" transform="translate(72.718002,726.07091)">
</g>
<g id="g6215" transform="translate(77.159897,731.8307)">
</g>
<g id="g6219" transform="translate(84.291,730.858)">
</g>
<g id="g6223" transform="translate(93.718002,726.2291)">
</g>
<g id="g6227" transform="translate(97.462006,724.9693)">
</g>
<g id="g6231" transform="translate(105.18491,728.27991)">
</g>
<g id="g6235" transform="translate(110.76289,728.47321)">
</g>
<g id="g6239" transform="translate(115.55,730.114)">
</g>
<g id="g6243" transform="translate(122.5289,724.0318)">
</g>
<g id="g6247" transform="translate(131.47,731.02789)">
</g>
<g id="g6251" transform="translate(138.9529,731.0631)">
</g>
<g id="g6255" transform="translate(145.7319,731.0631)">
</g>
<g id="g6261" transform="translate(152.98,724.0318)">
</g>
<g id="g6265" transform="translate(161.92101,731.02789)">
</g>
<g id="g6269" transform="translate(169.4039,731.0631)">
</g>
<g id="g6273" transform="translate(173.3179,724.0318)">
</g>
<g id="g6277" transform="translate(109.9019,742.0681)">
</g>
<g id="g6281" transform="translate(118.843,749.0641)">
</g>
<g id="g6285" transform="translate(126.3259,749.0992)">
</g>
<g id="g6289" transform="translate(133.105,749.0992)">
</g>
<g id="g6295" transform="translate(140.353,742.0681)">
</g>
<g id="g6299" transform="translate(149.29401,749.0641)">
</g>
<g id="g6303" transform="translate(156.7769,749.0992)">
</g>
<g id="g6307" transform="translate(160.6909,742.0681)">
</g>
<g id="g6311" transform="translate(43.757004,742.05431)">
</g>
<g id="g6315" transform="translate(51.203903,748.04601)">
</g>
<g id="g6319" transform="translate(55.184006,751.3277)">
</g>
<g id="g6323" transform="translate(59.735001,743.481)">
</g>
<g id="g6327" transform="translate(60.448898,751.25591)">
</g>
<g id="g6331" transform="translate(65.669006,742.12511)">
</g>
<g id="g6335" transform="translate(79.807999,751.3277)">
</g>
<g id="g6339" transform="translate(85.957001,748.04601)">
</g>
<g id="g6343" transform="translate(87.766998,743.9088)">
</g>
<g id="g6347" transform="translate(96.499893,748.04601)">
</g>
<g id="g6351" transform="translate(89.309006,751.3277)">
</g>
<g id="g6355" transform="translate(103.489,748.04601)">
</g>
<g id="g6359" transform="translate(101.72,751.25591)">
</g>
<g id="g6363" transform="translate(520.3101,657.795)">
</g>
<g id="g6367" transform="translate(520.3101,657.795)">
</g>
<g id="g6371" transform="translate(479.87,704.74699)">
</g>
<g id="g6375" transform="translate(480.3199,697.476)">
</g>
<g id="g6379" transform="translate(481.45,691.63499)">
</g>
<g id="g6383" transform="translate(479.92,710.407)">
</g>
<g id="g6387" transform="translate(480.52,715.4034)">
</g>
<g id="g6391" transform="translate(560.75,704.74699)">
</g>
<g id="g6395" transform="translate(560.3,697.476)">
</g>
<g id="g6399" transform="translate(559.17,691.63499)">
</g>
<g id="g6403" transform="translate(560.7,710.407)">
</g>
<g id="g6407" transform="translate(560.0999,715.4034)">
</g>
<g id="g6411" transform="translate(550.81979,675.5051)">
</g>
<g id="XMLID_1_">
	<polygon id="XMLID_57_" class="st0" points="67.5,296.5 159.8,296.5 159.8,203.5 67.5,203.5 67.5,296.5 	"/>
	<rect id="XMLID_58_" x="162.2" y="203.7" class="st0" width="270.3" height="92.9"/>
	<path id="XMLID_86_" class="st1" d="M409.7,270.4l0,0.3l-0.1,0.3l-0.1,0.3l-0.1,0.3l-0.1,0.3l-0.1,0.3l-0.2,0.2l-0.1,0.3l-0.2,0.2
		l-0.2,0.2l-0.2,0.2l-0.2,0.2l-0.1,0.1l-0.1,0.1l-0.1,0l-0.1,0.1l-0.2,0l-0.1,0.1l-0.2,0l-0.1,0l0,0l-0.2,0l-0.3,0h-0.1l-0.3,0
		l-0.1,0l-0.1,0l-0.1,0l-0.1,0l-0.1,0l-0.1-0.1l-0.1,0l-0.1-0.1l-0.1-0.1l-0.1-0.1l-0.1-0.1l-0.1-0.1L405,273l-0.1-0.2l-0.1-0.2
		l-0.1-0.3l0-0.2l0-0.3v-0.3l0-0.3l0-0.3l0.1-0.3l0.1-0.3l0.1-0.3l0.1-0.2l0.1-0.3l0.2-0.3l0.2-0.2l0.2-0.2l0.2-0.2l0.2-0.2l0.1-0.1
		l0.1-0.1l0.1-0.1l0.1-0.1l0.1,0l0.2-0.1l0.1-0.1l0.2,0h0l0.2,0l0.3,0h0.1h0.1l0.2,0l0.1,0l0.1,0l0.1,0l0.1,0.1l0.1,0l0.1,0l0.1,0.1
		l0.1,0.1l0.1,0.1l0.1,0.1l0.1,0.1l0.1,0.1l0.1,0.1l0.1,0.2l0.1,0.2l0.1,0.2l0.1,0.3l0,0.3V270.4z M410.7,264.6l-0.2,1.3l-0.1-0.2
		l-0.1-0.2l-0.1-0.1l-0.1-0.2l-0.2-0.1l-0.1-0.1l-0.2-0.1l-0.2-0.1l-0.2-0.1l-0.2-0.1l-0.2-0.1l-0.2-0.1l-0.2-0.1l-0.2,0l-0.2,0
		l-0.2,0l-0.1,0h-0.6l-0.3,0l-0.3,0.1l-0.3,0l-0.3,0.1l-0.3,0.1l-0.3,0.1l-0.3,0.1l-0.3,0.1l-0.2,0.1l-0.3,0.2l-0.2,0.2l-0.3,0.2
		l-0.2,0.2l-0.3,0.2l-0.2,0.2l-0.3,0.2l-0.2,0.3l-0.2,0.3l-0.2,0.3l-0.2,0.3l-0.2,0.3l-0.2,0.3l-0.1,0.3l-0.2,0.3l-0.1,0.3l-0.1,0.3
		l-0.1,0.3l-0.1,0.3l-0.1,0.3l-0.1,0.3l-0.1,0.4l-0.1,0.3l-0.1,0.3l0,0.3l0,0.3v0.3l0,0.3v0.3l0.1,0.3l0,0.3l0.1,0.3l0.1,0.3
		l0.1,0.3l0.1,0.3l0.1,0.2l0.1,0.3l0.2,0.3l0.1,0.2l0.2,0.2l0.2,0.2l0.2,0.2l0.2,0.2l0.2,0.2l0.2,0.1l0.2,0.1l0.2,0.1l0.2,0.1
		l0.2,0.1l0.3,0.1l0.3,0l0.3,0l0.3,0l0.3,0h0.2l0.1,0l0.1,0l0.2,0l0.2,0l0.2,0l0.2-0.1l0.2-0.1l0.2-0.1l0.2-0.1l0.2-0.1l0.1,0
		l0.1-0.1l0.2-0.1l0.2-0.1l0.2-0.2l0.2-0.2l0.2-0.2l0.2-0.2l0.1-0.2h0.1l-0.3,1.4h3.9l2.3-12.6H410.7z M400.7,261l0.1-0.2l0.1-0.2
		l0.1-0.2l0.1-0.3l0.1-0.2l0-0.2l0-0.2v-0.3l0-0.2l-0.1-0.2l-0.1-0.2l-0.1-0.2l-0.1-0.2l-0.2-0.2l-0.1-0.1l-0.2-0.1l-0.2-0.1
		l-0.2-0.1l-0.2-0.1l-0.2,0l-0.2,0h-0.2l-0.2,0l-0.2,0.1l-0.2,0.1l-0.2,0.1l-0.2,0.1l-0.2,0.1l-0.2,0.2l-0.2,0.2l-0.2,0.2l-0.2,0.2
		l-0.1,0.2l-0.1,0.2l-0.1,0.2l-0.1,0.2l0,0.3l0,0.2l0,0.3v0.2l0,0.2l0,0.2l0.1,0.2l0.1,0.2l0.1,0.2l0.1,0.2l0.1,0.1l0.2,0.1l0.2,0.1
		l0.2,0.1l0.2,0l0.2,0l0.3,0l0.2,0l0.2,0l0.2,0l0.2-0.1l0.2-0.1l0.2-0.1l0.2-0.1l0.2-0.2l0.2-0.2l0.2-0.2L400.7,261z M393.8,277.3
		l2.3-12.6h3.9l-2.4,12.6H393.8z M388.8,270.4l0,0.3l0,0.3l-0.1,0.3l-0.1,0.3l-0.1,0.3l-0.1,0.3l-0.2,0.2l-0.2,0.3l-0.2,0.2
		l-0.2,0.2l-0.2,0.2l-0.2,0.2l-0.1,0.1l-0.1,0.1l-0.1,0l-0.1,0.1l-0.1,0l-0.1,0.1l-0.1,0l-0.2,0l-0.1,0l-0.2,0l-0.3,0h-0.2l-0.1,0
		l-0.1,0l-0.2,0l-0.1,0l-0.1,0l-0.1,0l-0.1,0l-0.1-0.1l-0.1,0l-0.1-0.1l-0.1-0.1l-0.1-0.1l-0.1-0.1l-0.1-0.1l-0.1-0.1l-0.1-0.2
		l-0.1-0.2l-0.1-0.3l-0.1-0.2l0-0.3v-0.3l0-0.3l0.1-0.3l0.1-0.3l0.1-0.3l0.1-0.3l0.1-0.2l0.1-0.3l0.2-0.3l0.2-0.2l0.2-0.2l0.2-0.2
		l0.2-0.2l0.1-0.1l0.1-0.1l0.1-0.1l0.1-0.1l0.1,0l0.1-0.1l0.2-0.1l0.1,0h0.1l0.2,0l0.3,0h0.1h0.2l0.1,0l0.1,0l0.1,0l0.1,0l0.1,0.1
		l0.1,0l0.1,0l0.1,0.1l0.1,0.1l0.1,0.1l0.1,0.1l0.1,0.1l0.1,0.1l0.1,0.1l0.1,0.2l0.1,0.2l0.1,0.2l0,0.3l0,0.3V270.4z M391.3,256.8
		l-1.7,9.1l-0.1-0.2l-0.1-0.2l-0.1-0.1l-0.2-0.2l-0.3-0.3l-0.2-0.1l-0.2-0.1l-0.2-0.1l-0.2-0.1l-0.2-0.1l-0.2-0.1l-0.2-0.1l-0.4-0.1
		l-0.2,0l-0.1,0h-0.6l-0.3,0l-0.3,0.1l-0.3,0l-0.3,0.1l-0.3,0.1l-0.3,0.1l-0.3,0.1l-0.3,0.1l-0.3,0.1l-0.3,0.2l-0.3,0.2l-0.2,0.2
		l-0.3,0.2l-0.2,0.2l-0.3,0.2l-0.2,0.2l-0.2,0.3l-0.2,0.3l-0.2,0.3l-0.2,0.3l-0.2,0.3l-0.2,0.3l-0.2,0.3l-0.2,0.3l-0.2,0.3l-0.1,0.3
		l-0.1,0.3L380,270l-0.1,0.3l-0.1,0.3l-0.1,0.4l-0.1,0.3l-0.1,0.3l0,0.3l0,0.3v0.3l0,0.3l0,0.3l0,0.3l0.1,0.3l0.1,0.3l0.1,0.3
		l0.1,0.3l0.1,0.3l0.1,0.2l0.1,0.3l0.2,0.3l0.2,0.2l0.2,0.2l0.2,0.2l0.2,0.2l0.2,0.2l0.2,0.2l0.2,0.1l0.2,0.1l0.2,0.1l0.2,0.1
		l0.3,0.1l0.3,0.1l0.3,0l0.3,0l0.3,0l0.3,0h0.2l0.1,0l0.1,0l0.2,0l0.2,0l0.2,0l0.2-0.1l0.2-0.1l0.2-0.1l0.2-0.1l0.3-0.1l0.1,0
		l0.2-0.1l0.2-0.1l0.2-0.1l0.2-0.2l0.2-0.2l0.2-0.2l0.2-0.2l0.2-0.2h0.1l-0.3,1.4h3.9l3.8-20.5H391.3z M378.2,267.1l0,0.2l0,0.2v0.5
		l0,0.3l-0.1,0.6l0,0.3l-0.1,0.3l-1.4,7.8h-3.9l1.1-6.2v-0.1l0-0.1v-0.1l0-0.1l0-0.1l0-0.1l0-0.1l0-0.1l0-0.1v-0.1l0-0.3l0-0.2v-0.5
		l0-0.2l0-0.2l0-0.2l-0.1-0.2l0-0.1l0-0.1l-0.1-0.1l-0.1-0.1l-0.1-0.1l-0.1-0.1l-0.1,0l-0.1-0.1l-0.2-0.1l-0.2,0l-0.2,0h-0.4l-0.3,0
		l-0.2,0l-0.1,0l-0.1,0l-0.1,0l-0.1,0.1l-0.1,0l-0.1,0.1l-0.1,0.1l-0.1,0.1l-0.1,0.1l-0.1,0.1l-0.1,0.1l-0.1,0.1l-0.1,0.2l-0.1,0.2
		l-0.1,0.2l-0.1,0.3l-0.1,0.3l-0.1,0.3l-0.1,0.3l-0.1,0.3l-1.2,6.5h-3.9l2.3-12.6h3.9l-0.3,1.6h0.1l0.2-0.3l0.2-0.2l0.2-0.2l0.2-0.2
		l0.2-0.2l0.2-0.2l0.2-0.2l0.2-0.1l0.2-0.1l0.2-0.1l0.3-0.1l0.3-0.1l0.3-0.1l0.3,0l0.3,0h0.6l0.3,0l0.3,0l0.2,0l0.2,0.1l0.2,0.1
		l0.2,0.1l0.2,0.1l0.2,0.1l0.2,0.1l0.2,0.1l0.3,0.3l0.1,0.2l0.1,0.2l0.1,0.2l0.1,0.2l0.1,0.2l0.1,0.2l0.1,0.2l0,0.2l0.1,0.2
		L378.2,267.1z M361.7,258.7l-3.5,18.6h4.2l3.4-18.6H361.7z M352.9,256.8l-0.2-0.1l-0.2,0l-0.2,0l-0.2,0l-0.2,0h-0.5l-0.3,0l-0.3,0
		l-0.3,0l-0.3,0.1l-0.3,0.1l-0.3,0.1l-0.3,0.1l-0.3,0.1l-0.3,0.1l-0.3,0.2l-0.3,0.2l-0.2,0.2l-0.3,0.2l-0.2,0.2l-0.2,0.2l-0.1,0.1
		l-0.1,0.1l-0.1,0.1l-0.1,0.1l-0.1,0.1l-0.1,0.1l-0.1,0.1l-0.1,0.1l-0.2,0.2l-0.1,0.2l-0.1,0.2l-0.1,0.2l-0.1,0.2l-0.1,0.2l-0.1,0.2
		l-0.1,0.2l-0.1,0.4l-0.1,0.5l-0.1,0.5l-0.1,0.5l-0.3,1.6h-1.4l-0.7,3.7h1.4l-1.7,9h3.9l1.7-9h2.7l0.7-3.7h-2.7l0.4-2l0.1-0.3l0-0.2
		l0.1-0.2l0.1-0.2l0.1-0.2l0.1-0.2l0.1-0.2l0.1-0.1l0.1-0.1l0.1-0.1l0.1-0.1l0.1-0.1l0.2-0.1l0.1,0l0.2,0l0.2,0h0.1l0.1,0l0.1,0
		l0.1,0l0.1,0l0.1,0.1l0.1,0l0.1,0.1l0.1,0l0.1,0l0.1,0.1l0.1,0l0.7-3.8l-0.2-0.1L352.9,256.8z M337.9,270.4l0,0.3l-0.1,0.3
		l-0.1,0.3l-0.1,0.3l-0.1,0.3l-0.1,0.3l-0.1,0.2l-0.2,0.3l-0.4,0.4l-0.2,0.2l-0.2,0.2l-0.1,0.1l-0.1,0.1l-0.1,0l-0.1,0.1l-0.1,0
		l-0.1,0.1l-0.1,0l-0.2,0l-0.1,0l-0.2,0l-0.3,0h-0.1l-0.2,0l-0.1,0l-0.1,0l-0.1,0l-0.1,0l-0.1,0l-0.1,0l-0.1-0.1l-0.1,0l-0.1-0.1
		l-0.1-0.1l-0.1-0.1l-0.1-0.1l-0.2-0.2l-0.1-0.2l-0.1-0.2l-0.1-0.3l0-0.2l0-0.3v-0.3l0-0.3l0.1-0.3l0.1-0.3l0.1-0.3l0.1-0.3l0.1-0.2
		l0.1-0.3l0.2-0.3l0.2-0.2l0.2-0.2l0.2-0.2l0.2-0.2l0.1-0.1l0.1-0.1l0.1-0.1l0.1-0.1l0.1,0l0.1-0.1l0.1-0.1l0.1,0h0.1l0.3,0l0.3,0
		h0.2h0.1l0.1,0l0.1,0l0.1,0l0.1,0l0.1,0.1l0.1,0l0.1,0l0.1,0.1l0.1,0.1l0.1,0.1l0.1,0.1l0.1,0.1l0.1,0.1l0.1,0.1l0.1,0.2l0.1,0.2
		l0.1,0.2l0.1,0.3l0,0.3V270.4z M342,268.8l-0.1-0.3l-0.1-0.3l-0.1-0.3l-0.1-0.3l-0.1-0.3l-0.1-0.3l-0.1-0.2l-0.2-0.3l-0.2-0.2
		l-0.2-0.2l-0.2-0.2l-0.2-0.2l-0.2-0.2l-0.2-0.2l-0.5-0.3l-0.3-0.1l-0.3-0.1l-0.3-0.1l-0.3-0.1l-0.3-0.1l-0.3-0.1l-0.3-0.1l-0.3,0
		l-0.3,0l-0.3,0v0h-0.3l-0.3,0l-0.3,0l-0.3,0l-0.1,0l-0.3,0.1l-0.3,0.1l-0.3,0.1l-0.3,0.1l-0.6,0.3l-0.3,0.1l-0.3,0.2l-0.3,0.2
		l-0.3,0.2l-0.3,0.2l-0.3,0.2l-0.3,0.2l-0.3,0.2l-0.3,0.3l-0.3,0.2l-0.2,0.3l-0.2,0.3l-0.2,0.3l-0.4,0.6l-0.1,0.3l-0.2,0.4l-0.1,0.3
		l-0.1,0.4l-0.1,0.4l-0.1,0.4l-0.1,0.4l-0.1,0.4l-0.1,0.4l-0.1,0.4v0.4v0.4l0,0.3l0,0.3l0.1,0.3l0.1,0.3l0.1,0.3l0.1,0.3l0.1,0.3
		l0.2,0.3l0.2,0.2l0.2,0.2l0.2,0.2l0.2,0.2l0.2,0.2l0.2,0.2l0.3,0.2l0.2,0.1l0.2,0.1l0.3,0.1l0.3,0.1l0.3,0.1l0.3,0.1l0.3,0.1
		l0.3,0.1l0.3,0l0.3,0l0.3,0l0.3,0l0.3,0l0.3,0l0.3,0l0.3,0l0.1,0l0.3-0.1l0.3-0.1l0.3-0.1l0.3-0.1l0.3-0.1l0.3-0.1l0.3-0.1l0.6-0.3
		l0.3-0.2l0.3-0.2l0.3-0.2l0.6-0.5l0.3-0.3l0.3-0.2l0.2-0.3l0.2-0.3l0.2-0.3l0.2-0.3l0.2-0.3l0.2-0.3l0.2-0.3l0.1-0.3l0.1-0.4
		l0.1-0.3l0.1-0.4l0.2-0.8l0.1-0.4l0-0.4l0-0.4l0-0.3L342,268.8z M317.4,264.6l-4.9,4.6l2.3-12.4h-3.9l-3.8,20.5h3.9l1-5.2l3.3,5.2
		h5.5l-4.6-6.8l6.6-5.8H317.4z M306.2,267.1l0-0.2l0-0.2l-0.1-0.2l-0.1-0.2l-0.1-0.2l-0.1-0.2l-0.1-0.2l-0.1-0.2l-0.1-0.2l-0.1-0.2
		l-0.1-0.1l-0.1-0.1l-0.1-0.1l-0.2-0.1l-0.2-0.1l-0.2-0.1l-0.2-0.1l-0.2-0.1l-0.2-0.1l-0.2,0l-0.2,0l-0.3,0h-0.6l-0.3,0l-0.3,0
		l-0.2,0l-0.3,0.1l-0.2,0.1l-0.5,0.2l-0.2,0.1l-0.2,0.2l-0.2,0.2l-0.2,0.2l-0.2,0.2l-0.2,0.2l-0.2,0.2l-0.2,0.3h-0.1l0.3-1.6h-3.9
		l-2.3,12.6h3.9l1.2-6.5l0.1-0.3l0.1-0.3l0.1-0.3l0.1-0.3l0.1-0.3l0.1-0.2l0.1-0.2l0.2-0.2l0.1-0.1l0.2-0.2l0.1-0.1l0.1-0.1l0.1-0.1
		l0.1,0l0.1-0.1l0.1-0.1l0.1,0l0.1,0l0.1,0l0.1,0l0.1,0l0.2,0h0.4l0.2,0l0.2,0l0.2,0.1l0.1,0l0.1,0l0.1,0.1l0,0.1l0,0l0.1,0.1l0,0.1
		l0,0.1l0,0.2l0,0.2l0,0.2l0,0.2l0,0.2v0.2l0,0.2l0,0.2l0,0.1l0,0.1l0,0.1l0,0.1l0,0.1l0,0.1l0,0.1l0,0.1l0,0.1l0,0.1l0,0.1l0,0.1
		l-1.1,6.2h3.9l1.4-7.8l0-0.3l0-0.3l0-0.3l0-0.3v-0.2l0-0.3v-0.2l0-0.2L306.2,267.1z M287.9,270.4l0,0.3l0,0.3l-0.1,0.3l-0.1,0.3
		l-0.1,0.3l-0.1,0.3l-0.1,0.3l-0.2,0.2l-0.2,0.2l-0.2,0.2l-0.2,0.2l-0.2,0.2l-0.1,0.1l-0.1,0.1l-0.1,0l-0.1,0.1l-0.1,0.1l-0.1,0.1
		l-0.1,0l-0.1,0h-0.1l-0.2,0l-0.3,0h-0.1l-0.3,0l-0.1,0l-0.1,0l-0.1,0l-0.1,0l-0.1-0.1l-0.1-0.1l-0.1,0l-0.1-0.1l-0.1-0.1l-0.1-0.1
		l-0.1-0.1l-0.1-0.1l0-0.1l-0.1-0.2l-0.1-0.2l-0.1-0.2l0-0.3l0-0.2v-0.3l0-0.3l0-0.3l0.1-0.3l0.1-0.3l0.1-0.3l0.1-0.3l0.1-0.2
		l0.1-0.3l0.2-0.2l0.2-0.2l0.2-0.2l0.2-0.2l0.1-0.1l0.1-0.1l0.1-0.1l0.1-0.1l0.1-0.1l0.1-0.1l0.1,0l0.1,0l0,0l0.2-0.1l0.3,0l0.1,0
		h0.1l0.1,0h0.1l0.1,0l0.1,0l0.1,0l0.1,0.1l0.1,0l0.1,0.1l0.1,0.1l0.1,0.1l0.1,0.1l0.1,0.1l0.1,0.1l0.1,0.1l0.1,0.2l0.1,0.2l0.1,0.2
		l0.1,0.3l0,0.3V270.4z M288.7,265.8l-0.1-0.2l-0.1-0.2l-0.1-0.1l-0.1-0.2L288,265l-0.2-0.1l-0.2-0.1l-0.2-0.1l-0.2-0.1l-0.2-0.1
		l-0.2-0.1l-0.2-0.1l-0.2-0.1l-0.2,0l-0.2,0l-0.2,0l-0.1,0h-0.6l-0.3,0l-0.3,0.1l-0.3,0.1l-0.3,0.1l-0.3,0.1l-0.3,0.1l-0.3,0.1
		l-0.3,0.1l-0.3,0.2l-0.3,0.2l-0.3,0.2l-0.3,0.2l-0.2,0.2l-0.2,0.2l-0.2,0.2l-0.2,0.3l-0.2,0.3l-0.2,0.3l-0.2,0.3l-0.2,0.3l-0.2,0.3
		l-0.2,0.3l-0.2,0.3l-0.2,0.3l-0.1,0.3l-0.1,0.3l-0.1,0.3l-0.1,0.3l-0.1,0.3l-0.1,0.3l-0.1,0.3l-0.1,0.3l0,0.3l0,0.3l0,0.3v0.3
		l0,0.3l0,0.3l0,0.3l0,0.3l0.1,0.3l0.1,0.3l0.1,0.3l0.1,0.3l0.1,0.2l0.1,0.3l0.1,0.3l0.1,0.3l0.3,0.4l0.2,0.2l0.2,0.2l0.2,0.2
		l0.2,0.1l0.2,0.1l0.2,0.1l0.2,0.1l0.2,0.1l0.3,0.1l0.3,0.1l0.3,0l0.3,0l0.3,0h0.2l0.1,0l0.1,0l0.2,0l0.2,0l0.2,0l0.2,0l0.2-0.1
		l0.2-0.1l0.2-0.1l0.2-0.1l0.1,0l0.1,0l0.2-0.1l0.2-0.1l0.2-0.2l0.2-0.2l0.2-0.2l0.2-0.2l0.2-0.2h0.1l-0.3,1.4h3.9l2.3-12.6h-3.9
		L288.7,265.8z M273.4,263.9l0,0.3l-0.1,0.3l-0.1,0.3l-0.1,0.2l-0.1,0.2l-0.1,0.1l-0.1,0.1l-0.1,0.1l-0.1,0.1l-0.1,0.1l-0.1,0.1
		l-0.1,0.1l-0.1,0l-0.2,0.1l-0.2,0.1l-0.2,0.1l-0.2,0.1l-0.2,0l-0.2,0l-0.2,0h0l-0.2,0h-0.1l0,0h-0.5l0.7-3.6h0.7l0.2,0l0.2,0l0.2,0
		l0.2,0l0.2,0.1l0.2,0.1l0.2,0.1l0.2,0.1l0.1,0.1l0.1,0l0.1,0.1l0.1,0.1l0,0l0,0.1l0,0.1l0,0.1l0,0.2l0,0.2L273.4,263.9z M273.2,271
		l0,0.3l-0.1,0.3l-0.1,0.3l-0.1,0.2l-0.1,0.2l-0.1,0.2l-0.1,0.2l-0.1,0.2l-0.2,0.1l-0.2,0.1l-0.2,0.1l-0.2,0.1l-0.2,0.1l-0.4,0.1
		l-0.2,0.1l-0.2,0l-0.2,0l-0.1,0h-0.2l-0.1,0h-0.7l0,0l0,0h-0.5l0.7-4h1.6l0.2,0l0.2,0l0.2,0l0.2,0l0.2,0.1l0.2,0.1l0.2,0.1l0.2,0.1
		l0.1,0.1l0.1,0l0.1,0.1l0.1,0.1l0,0.1l0,0.1l0,0.1l0,0.1l0,0.1l0,0.1l0,0.1V271z M277.4,261.2l0-0.2l-0.1-0.2l-0.1-0.2l-0.1-0.2
		l-0.1-0.2L277,260l-0.1-0.2l-0.1-0.1l-0.2-0.1l-0.1-0.1l-0.2-0.1l-0.1-0.1l-0.2-0.1l-0.2-0.1l-0.2-0.1l-0.2-0.1l-0.2-0.1l-0.2-0.1
		l-0.2,0l-0.2,0l-0.2,0l-0.3,0l-0.3,0h-6.3l-3.4,18.6h6.5l0.3,0l0.3,0l0.3,0l0.3,0l0.3,0l0.3-0.1l0.3-0.1l0.3-0.1l0.3-0.1l0.3-0.1
		l0.3-0.1l0.3-0.1l0.3-0.1l0.3-0.1l0.3-0.1l0.2-0.1l0.2-0.1l0.2-0.2l0.2-0.2l0.2-0.2l0.2-0.2l0.2-0.2l0.2-0.2l0.2-0.3l0.2-0.2
		l0.1-0.3l0.1-0.3l0.1-0.3l0.1-0.3l0.1-0.3l0.1-0.3l0.1-0.3l0.1-0.5l0-0.5l0-0.4l0-0.4l0-0.2l0-0.2l0-0.2l-0.1-0.2l-0.1-0.4
		l-0.1-0.3l-0.1-0.2l-0.1-0.1l-0.1-0.1l-0.1-0.1l-0.1-0.1l-0.1-0.1l-0.1-0.1l-0.1-0.1l-0.1-0.1l-0.2-0.1l-0.2-0.1l-0.2-0.1l-0.2-0.1
		l-0.2-0.1l-0.2,0l-0.2,0v0l0.3-0.2l0.2-0.2l0.2-0.2l0.2-0.2l0.2-0.2l0.2-0.2l0.2-0.2l0.1-0.2l0.1-0.3l0.1-0.2l0.1-0.3l0.1-0.3
		l0.1-0.3l0.1-0.3l0.1-0.3l0.1-0.3l0-0.3l0-0.3l0-0.3l0-0.3v-0.6l0-0.2L277.4,261.2L277.4,261.2z M250.1,277.2h3.9l3.8-20.5h-3.9
		L250.1,277.2z M245,270.4l0,0.3l-0.1,0.3l-0.1,0.6l-0.1,0.3l-0.1,0.3l-0.1,0.3l-0.1,0.2l-0.2,0.2l-0.2,0.2l-0.2,0.2l-0.2,0.2
		l-0.1,0.1l-0.1,0.1l-0.1,0l-0.1,0.1l-0.1,0.1l-0.1,0.1l-0.1,0l-0.1,0h0l-0.2,0l-0.3,0h-0.1l-0.3,0l-0.1,0l-0.1,0l-0.1,0l-0.1,0
		l-0.1-0.1l-0.1-0.1l-0.1,0l-0.1-0.1l-0.1-0.1l-0.1-0.1l-0.1-0.1l-0.1-0.1l-0.1-0.1l-0.1-0.2l-0.1-0.2l-0.1-0.2l0-0.3l0-0.2v-0.3
		l0-0.3l0-0.3l0.1-0.3l0.1-0.3l0.1-0.3l0.1-0.3l0.2-0.2l0.1-0.3l0.2-0.2l0.2-0.2l0.2-0.2l0.2-0.2l0.1-0.1l0.1-0.1l0.1-0.1l0.1-0.1
		l0.1-0.1l0.1-0.1l0.1,0l0.1,0l0,0l0.2-0.1l0.3,0l0.2,0h0.1l0.1,0h0.1l0.1,0l0.1,0l0.1,0l0.1,0.1l0.1,0l0.1,0.1l0.1,0.1l0.1,0.1
		l0.2,0.2l0.1,0.1l0.1,0.1l0.1,0.2l0.1,0.2l0.1,0.2l0.1,0.3l0,0.3L245,270.4L245,270.4z M245.8,265.8l-0.1-0.2l-0.1-0.2l-0.1-0.1
		l-0.1-0.2l-0.2-0.1l-0.1-0.1l-0.2-0.1l-0.2-0.1l-0.2-0.1l-0.2-0.1l-0.2-0.1l-0.2-0.1l-0.2-0.1l-0.4-0.1l-0.2,0l-0.1,0h-0.6l-0.3,0
		l-0.3,0.1l-0.3,0.1l-0.3,0.1l-0.3,0.1l-0.3,0.1l-0.3,0.1l-0.3,0.1l-0.3,0.2l-0.3,0.2l-0.3,0.2l-0.3,0.2l-0.2,0.2l-0.2,0.2l-0.2,0.2
		l-0.2,0.3l-0.2,0.3l-0.2,0.3l-0.2,0.3l-0.2,0.3l-0.2,0.3l-0.2,0.3l-0.1,0.3l-0.2,0.3l-0.1,0.3l-0.1,0.3l-0.1,0.3l-0.1,0.3l-0.1,0.3
		l-0.1,0.3l-0.1,0.3l0,0.3l0,0.3l0,0.3l0,0.3v0.6l0,0.3l0,0.3l0,0.3l0.1,0.3l0.1,0.3l0.1,0.3l0.1,0.3l0.2,0.5l0.1,0.3l0.2,0.3
		l0.1,0.2l0.2,0.2l0.2,0.2l0.2,0.2l0.2,0.2l0.2,0.1l0.2,0.1l0.2,0.1l0.2,0.1l0.3,0.1l0.3,0.1l0.3,0.1l0.3,0l0.3,0l0.3,0h0.2l0.1,0
		l0.1,0l0.2,0l0.2,0l0.2,0l0.2,0l0.2-0.1l0.2-0.1l0.2-0.1l0.2-0.1l0.1,0l0.1,0l0.2-0.1l0.2-0.1l0.2-0.2l0.2-0.2l0.2-0.2l0.2-0.2
		l0.2-0.2h0.1l-0.2,1.4h3.9l2.3-12.6H246L245.8,265.8L245.8,265.8z M235.7,264.4l0.8,0l-0.8,4.3l-0.1,0l-0.1-0.1l-0.1-0.1l-0.2-0.1
		l-0.2-0.1l-0.2,0l-0.1,0l-0.2,0l-0.2,0l-0.2,0h-0.2l-0.4,0l-0.2,0l-0.2,0l-0.2,0.1l-0.2,0l-0.2,0.1l-0.1,0.1l-0.1,0.1l-0.2,0.1
		l-0.1,0.1l-0.1,0.1l-0.1,0.1l-0.1,0.1l-0.1,0.1l-0.1,0.1l-0.2,0.3l-0.2,0.3l-0.1,0.3l-0.1,0.3L231,271l-0.1,0.4l-0.1,0.4l-0.1,0.4
		l-1,5.1h-3.9l2.3-12.6h3.9l-0.4,2.1h0.1l0.2-0.3l0.2-0.3l0.2-0.2l0.2-0.2l0.2-0.2l0.3-0.2l0.2-0.2l0.5-0.3l0.3-0.1l0.3-0.1l0.3-0.1
		l0.3-0.1l0.3,0l0.3,0H235.7z M226.9,264.6h-2.2l0.7-3.8h-3.9l-0.7,3.8h-1.3l-0.7,3.7h1.3l-1.6,8.9h3.9l1.6-8.9h2.2L226.9,264.6z
		 M217.1,267.1l0-0.2l-0.1-0.2l0-0.2l-0.1-0.2l-0.1-0.2l-0.1-0.2l-0.1-0.2l-0.1-0.2l-0.1-0.2l-0.1-0.2l-0.1-0.1l-0.1-0.1l-0.1-0.1
		l-0.2-0.1l-0.2-0.1l-0.2-0.1l-0.2-0.1l-0.2-0.1l-0.2-0.1l-0.2,0l-0.2,0l-0.3,0h-0.6l-0.3,0l-0.3,0l-0.3,0l-0.2,0.1l-0.2,0.1
		l-0.5,0.2l-0.2,0.1l-0.2,0.2l-0.2,0.2l-0.2,0.2l-0.2,0.2l-0.2,0.2l-0.2,0.2l-0.2,0.3h0l0.3-1.6h-3.9l-2.3,12.6h3.9l1.2-6.5l0.1-0.3
		l0.1-0.3l0.1-0.3l0.1-0.3l0.1-0.3l0.1-0.2l0.1-0.2l0.1-0.2l0.1-0.1l0.1-0.1l0.1-0.1l0.1-0.1l0.1-0.1l0.1-0.1l0.1,0l0.1-0.1l0.1-0.1
		l0.2-0.1l0.1,0l0.1,0l0.1,0l0.1,0h0.4l0.2,0l0.2,0l0.2,0.1l0.1,0l0.1,0l0.1,0.1l0.1,0.1l0,0l0,0.1l0.1,0.1l0,0.1l0.1,0.2l0,0.2
		l0,0.2l0,0.2l0,0.2v0.2l0,0.2l0,0.2l0,0.1l0,0.1l0,0.1l0,0.1l0,0.1l0,0.1l0,0.1l0,0.1l0,0.1l0,0.1l0,0.1l0,0.1l-1.1,6.2h3.9
		l1.4-7.8l0.1-0.6l0-0.3l0-0.3l0-0.2l0-0.3v-0.2l0-0.2L217.1,267.1z M195.6,269.1h4.5l0-0.2l0-0.2l0-0.2l-0.1-0.2l-0.1-0.2l-0.1-0.2
		l-0.1-0.1l-0.1-0.2l-0.1-0.1l-0.1-0.1l-0.2-0.1l-0.2-0.1l-0.2-0.1l-0.2,0l-0.2,0H198l-0.2,0h0l-0.2,0l-0.2,0l-0.2,0.1l-0.2,0.1
		l-0.2,0.1l-0.2,0.1l-0.2,0.1l-0.2,0.2l-0.1,0.2l-0.2,0.2l-0.1,0.2l-0.1,0.2l-0.1,0.2L195.6,269.1z M203.5,268.6l0,0.4l0,0.4l0,0.3
		l0,0.4l0,0.4l-0.1,0.4l-0.1,0.4v0l-0.1,0.5H195l0,0.4l0,0.3l0,0.3l0,0.3l0,0.2l0.1,0.2l0.1,0.2l0,0.1l0.1,0.1l0.1,0.1l0.1,0.1
		l0.1,0.1l0.1,0.1l0.1,0.1l0.1,0.1l0.1,0l0.1,0l0.1,0l0.1,0l0.1,0l0.1,0l0.3,0h0.4h0.2h0.2l0.1,0l0.1,0l0.1,0l0,0l0.1,0l0.1-0.1
		l0.1-0.1l0.1-0.1l0.1-0.1l0.1-0.1l0.1-0.1l0.1-0.1l0.1-0.1l0.1-0.2h3.8l-0.1,0.3l-0.1,0.3l-0.1,0.2l-0.1,0.3l-0.2,0.2l-0.1,0.2
		l-0.2,0.2l-0.2,0.2l-0.2,0.2l-0.2,0.2l-0.2,0.2l-0.2,0.2l-0.2,0.2l-0.4,0.3l-0.2,0.1l-0.2,0.1l-0.2,0.1l-0.2,0.1l-0.2,0.1l-0.2,0.1
		l-0.2,0.1l-0.2,0.1l-0.2,0.1l-0.2,0.1l-0.2,0.1l0,0l-0.2,0l-0.2,0.1l-0.2,0l-0.2,0l-0.2,0l-0.3,0l-0.3,0l-0.3,0l-0.3,0l-0.3-0.1
		l-0.3-0.1l-0.3-0.1l-0.3-0.1l-0.3-0.1l-0.3-0.1l-0.5-0.3l-0.2-0.2l-0.4-0.3l-0.2-0.2l-0.2-0.2l-0.2-0.2l-0.2-0.2l-0.1-0.3l-0.1-0.3
		l-0.1-0.3l-0.1-0.3l-0.1-0.3l-0.1-0.3l0-0.3l0-0.3l0-0.3v-0.4l0-0.4l0-0.4l0.1-0.4l0.1-0.4l0.1-0.4l0.1-0.4l0.1-0.4l0.1-0.3
		l0.1-0.4l0.1-0.3l0.2-0.3l0.2-0.3l0.2-0.3l0.2-0.3l0.2-0.3l0.2-0.3l0.2-0.3l0.2-0.2l0.2-0.2l0.3-0.2l0.3-0.2l0.3-0.2l0.3-0.2
		l0.3-0.2l0.3-0.2l0.3-0.1l0.3-0.1l0.3-0.1l0.3-0.1l0.3-0.1l0.3-0.1l0.3-0.1l0.3,0l0.2,0l0.1,0l0.3,0h0.7l0.3,0l0.3,0.1l0.3,0
		l0.3,0.1l0.3,0.1l0.3,0.1l0.3,0.1l0.2,0.1l0.2,0.1l0.2,0.2l0.2,0.2l0.2,0.2l0.2,0.2l0.2,0.2l0.2,0.2l0.1,0.3l0.1,0.3l0.1,0.2
		l0.1,0.3l0.1,0.3l0.1,0.3l0.1,0.3l0,0.3L203.5,268.6z M191.8,259.1l-0.4-0.2l-0.4-0.2l-0.4-0.2l-0.5-0.1l-0.2,0l-0.2-0.1l-0.2-0.1
		l-0.5,0l-0.2,0h-0.2l-0.3,0h-0.2l-0.4,0l-0.4,0.1l-0.4,0.1l-0.4,0.1l-0.4,0.1l-0.4,0.2l-0.4,0.2l-0.4,0.2l-0.4,0.2l-0.4,0.2
		l-0.4,0.3l-0.4,0.2l-0.4,0.3l-0.4,0.3l-0.4,0.3l-0.4,0.3l-0.7,0.7l-0.3,0.4l-0.3,0.4l-0.3,0.4l-0.3,0.4l-0.3,0.4l-0.2,0.5l-0.2,0.5
		l-0.2,0.4l-0.2,0.4l-0.2,0.5l-0.1,0.5L178,267l-0.1,0.5l-0.1,0.5l-0.1,0.5l-0.1,0.5l0,0.5l0,0.5v0.5l0,0.5l0,0.4l0.1,0.5l0.1,0.4
		l0.1,0.4l0.1,0.4l0.2,0.4l0.2,0.4l0.2,0.4l0.2,0.4l0.3,0.3l0.3,0.3l0.3,0.3l0.3,0.3l0.3,0.3l0.3,0.2l0.3,0.2l0.3,0.2l0.4,0.2
		l0.4,0.2l0.4,0.1l0.4,0.1l0.4,0.1l0.4,0.1l0.4,0l0.4,0l0.4,0h0.2l0.2,0l0.2,0l0.2,0l0.2,0l0.2,0l0.2,0l0.2,0l0.3-0.1l0.3-0.1
		l0.3-0.1l0.3-0.1l0.3-0.1l0.3-0.1l0.3-0.1l0.3-0.1l1.1-5.8l-0.2,0.2l-0.2,0.2l-0.2,0.2l-0.2,0.2l-0.2,0.2l-0.2,0.2l-0.2,0.2
		l-0.3,0.1l-0.3,0.1l-0.3,0.1l-0.3,0.1l-0.2,0.1l-0.3,0.1l-0.2,0l-0.3,0h-0.5l-0.2,0l-0.2,0l-0.2-0.1l-0.2,0l-0.2-0.1l-0.2-0.1
		l-0.2-0.1l-0.2-0.1l-0.2-0.1l-0.2-0.1l-0.2-0.1l-0.1-0.1l-0.2-0.1l-0.1-0.2l-0.2-0.4l-0.1-0.2l-0.1-0.2l-0.1-0.2l-0.1-0.2l-0.1-0.2
		l0-0.2l-0.1-0.2l0-0.2l0-0.2v-0.5l0-0.3l0-0.3l0-0.2l0-0.3l0.1-0.3l0.1-0.2l0.1-0.3l0.1-0.3l0.1-0.2l0.1-0.2l0.1-0.2l0.2-0.5
		l0.1-0.2l0.2-0.2l0.1-0.2l0.2-0.2l0.2-0.2l0.2-0.2l0.2-0.2l0.2-0.2l0.2-0.2l0.2-0.2l0.2-0.1l0.2-0.1l0.2-0.1l0.2-0.1l0.2-0.1
		l0.2-0.1l0.2-0.1l0.2-0.1l0.2-0.1l0.2,0l0.2,0l0.2,0h0.5l0.3,0l0.3,0l0.2,0l0.3,0.1l0.2,0.1l0.2,0.1l0.2,0.1l0.2,0.1l0.2,0.2
		l0.2,0.2l0.2,0.2l0.2,0.2l0.2,0.2l0.1,0.2l0.1,0.2L191.8,259.1L191.8,259.1L191.8,259.1z"/>
	<path id="XMLID_104_" class="st1" d="M403.3,237.6l0.5-5.3h-3.1l0.1,0.2l0.2,0.2l0.1,0.2l0.1,0.2l0.1,0.2l0.1,0.3v0.3l0,0.3l0,0.2
		l0,0.2l-0.1,0.2l-0.1,0.2l-0.1,0.2l-0.1,0.2l-0.1,0.2l-0.2,0.3l-0.1,0.2l-0.2,0.1l-0.1,0l-0.1,0.1l-0.2,0.1l-0.2,0.1l-0.2,0.1
		l-0.2,0.1l-0.3,0.1l-0.3,0.1l-0.3,0.1l-0.3,0.1l-0.3,0l-0.4,0.1l-0.3,0l-0.4,0v0.3l0,0.3l0.1,0.3l0.1,0.3l0.1,0.3l0.1,0.2l0.1,0.2
		l0.2,0.2l0.1,0.1l0.1,0.1l0.1,0.1l0.1,0.1l0.2,0.1l0.3,0.1l0.3,0.1l0.3,0l0.3,0l0.3,0l0.3,0l0.3,0l0.3,0l0.1,0l0.2,0l0.3-0.1
		l0.3-0.1l0.3-0.1l0.3-0.1l0.3-0.2l0.3-0.2l0.3-0.2l0.2-0.2l0.2-0.2l0.2-0.3l0.2-0.3L403.3,237.6z M384.6,228.8v-0.3v-0.2l0-0.2
		l-0.1-0.2l-0.1-0.2l-0.1-0.2l-0.1-0.2l-0.1-0.1l-0.1-0.1l-0.2-0.1l-0.2-0.1l-0.2-0.1l-0.2-0.1l-0.2-0.1l-0.2-0.1l-0.2-0.1l-0.3,0
		l-0.3,0l-0.3,0l-0.3,0l-0.3,0l-0.3,0h-0.3l-0.4,0l-0.7,0l-0.6,0.1l-0.6,0l-0.6,0.1l-0.5,0.1l-0.5,0.1l-0.2,0.1l-0.2,0.1l-0.2,0.1
		l-0.2,0.1l-0.2,0.1l-0.2,0.1l-0.2,0.1l-0.2,0.1l-0.1,0.1l-0.1,0.1l-0.1,0.1l-0.1,0.1l-0.1,0.1l-0.1,0.1l-0.1,0.1l-0.1,0.1l-0.1,0.1
		l0,0.1l0,0.1l0,0.2v0.3v0.3v0.2l0.1,0.2v0.1l0.1,0.1l0,0.1l0,0l0.1,0l0.1,0h0.1l0.1,0l0.1,0l0.1,0v0l0-0.1h8.9l-0.1-0.1l0.2-0.1
		l0.2-0.1l0.2-0.2l0.1-0.2l0.1-0.2l0.1-0.2l0.1-0.2L384.6,228.8z M387.6,230.2h29.6l-0.2,2.1h-2l-1.1,11.8H410l1.1-11.8h-3.6
		l-1.1,11.8h-3.8l0.3-2.7l-0.3,0.2l-0.3,0.2l-0.3,0.2l-0.3,0.1l-0.3,0.2l-0.3,0.1l-0.3,0.1l-0.3,0.1l-0.3,0.1l-0.2,0l-0.1,0
		l-0.3,0.1l-0.6,0.1l-0.3,0l-0.3,0h-0.3l-0.5,0l-0.5,0l-0.4-0.1l-0.4-0.1l-0.2-0.1l-0.2-0.1l-0.2-0.1l-0.2-0.1l-0.2-0.1l-0.2-0.1
		l-0.2-0.1l-0.2-0.1l-0.2-0.1l-0.2-0.1l-0.2-0.1l-0.1-0.1l-0.2-0.1l-0.1-0.1l-0.1-0.1l-0.2-0.1l-0.1-0.2l-0.2-0.2l-0.1-0.2l-0.1-0.2
		l-0.2-0.4l-0.2-0.4l-0.1-0.4l-0.1-0.4l-0.1-0.4l-0.1-0.4l-0.1-0.5l0-0.5l0-0.5v-0.5l0.6-0.3l0,0l0,0h0.1h0.1l0.2,0l0.3,0l0.3,0
		l0.3,0h0.3l0.3,0l0.3,0l0.2,0l0.3-0.1l0.2-0.1l0.3-0.1l0.2-0.1l0.2-0.1l0.1-0.1l0.1-0.1l0.1-0.1l0.1-0.1l0.1-0.1l0.1-0.1l0-0.1
		l0.1-0.1l0-0.1l0-0.1l0-0.2v-0.3l0-0.1l0-0.2l0-0.1l0-0.1l-0.1-0.1L397,233l-0.1-0.1l-0.1-0.1l-0.1-0.1l-0.1-0.1l-0.1-0.1l-0.1-0.1
		l-0.1-0.1h-6.8l-0.3,3.2h-6.6l-0.2,0l-0.2,0l-0.1,0l-0.1,0l-0.1,0l-0.1,0l-0.1,0.1l0,0.1l0,0.1l0,0.1l0,0.1l0,0.1l0,0.1v0.1v0.1
		v0.1l0,0.1l0,0.1l0,0.1l0.1,0.1l0.1,0.1l0.1,0.1l0.1,0l0.1,0l0.2,0.1l0.1,0l0.1,0h4l0.2,0l0.4,0.1l0.2,0l0.2,0.1l0.2,0l0.2,0.1
		l0.2,0.1l0.1,0.1l0.3,0.2l0.2,0.1l0.2,0.1l0.1,0.1l0.2,0.1l0.1,0.1l0.1,0.2l0.1,0.1l0.1,0.1l0.1,0.2l0.1,0.1l0.1,0.2l0.1,0.2
		l0.1,0.2l0.1,0.2l0.1,0.2l0,0.2l0,0.2l0,0.2v0.2l0,0.2l0,0.2l0,0.3l-0.1,0.2l-0.1,0.2l-0.1,0.2l-0.1,0.2l-0.1,0.2l-0.1,0.2
		l-0.1,0.2l-0.1,0.2l-0.3,0.4l-0.2,0.2l-0.2,0.2l-0.2,0.2l-0.2,0.2l-0.4,0.3l-0.2,0.1l-0.2,0.1l-0.2,0.1l-0.3,0.1l-0.2,0.1l-0.3,0.1
		l-0.3,0.1l-0.3,0.1l-0.3,0.1l-0.6,0.1l-0.3,0h-0.3H384h-0.5l-0.5-0.1l-0.5-0.1l-0.6-0.1l-0.7-0.1l-0.7-0.2l-0.6-0.2l-0.6-0.2
		l-0.6-0.2l-0.5-0.2l-0.3-0.1l-0.2-0.1l-0.2-0.1l-0.2-0.1l-0.2-0.1l-0.1-0.1l-0.2-0.1l-0.2-0.1l-0.2-0.1l-0.2-0.2l-0.2-0.2l-0.2-0.2
		l1.3-3.2v0l0,0l0,0.1l0.1,0.1l0.1,0.1l0.2,0.2l0.2,0.2l0.3,0.2l0.4,0.2l0.4,0.2l0.5,0.2l0.5,0.2l0.5,0.2l0.5,0.2l0.5,0.2l0.5,0.1
		l0.5,0.1l0.4,0.1l0.3,0l0.3,0l0.3,0l0.3,0l0.3,0l0.3,0l0.2,0l0.2,0l0.2-0.1l0.2,0l0.2-0.1l0.2-0.1l0.1-0.1l0.1-0.1l0.1-0.1l0.1-0.1
		l0.1-0.1l0.1-0.1l0.1-0.2l0.1-0.1l0-0.1V241l0-0.1l-0.1-0.1l-0.1-0.1l-0.1-0.1l-0.1-0.1l-0.1-0.1l-0.1-0.1l-0.1-0.1l-0.1,0
		l-0.1-0.1l-0.2,0l-0.2,0l-0.2,0h-3.4l-0.2,0l-0.2,0l-0.4-0.1l-0.2,0l-0.2,0l-0.2-0.1l-0.2-0.1l-0.3-0.1l-0.2-0.1l-0.2-0.1l-0.2-0.1
		l-0.2-0.1l-0.2-0.1l-0.1-0.1l-0.2-0.1l-0.1-0.1l-0.1-0.2l-0.1-0.1l-0.1-0.2l-0.1-0.2l-0.1-0.1l-0.1-0.2l-0.1-0.2l-0.1-0.2l-0.1-0.1
		v-0.2l0-0.2v-0.4l0-0.2l0.1-0.2l0-0.2l0.1-0.2l0-0.2l0.1-0.2l0.1-0.1l0.1-0.2l0.1-0.2l0.1-0.1l0.1-0.1l0.1-0.1l0.2-0.1l0.2-0.1
		l0.1-0.1l0.2-0.1l0.3-0.2l0.3-0.2l0.4-0.2l0.4-0.1l0.4-0.1l0.4-0.1l0.4,0l0.4,0h3.7l0.1-1h-10.8l-1.1,11.8h-3.8l1.1-11.8h-2
		l0.2-2.1h1.5l-0.1-0.1l-0.1-0.1l0-0.1l0-0.2l0-0.2l0-0.2l0-0.1v-0.2l0.1-0.3l0.1-0.3l0.1-0.3l0.1-0.3l0.1-0.3l0.1-0.3l0.2-0.3
		l0.1-0.3l0.2-0.2l0.2-0.3l0.2-0.2l0.2-0.2l0.2-0.2l0.3-0.2l0.3-0.2l0.3-0.2l0.3-0.2l0.3-0.1l0.3-0.2l0.4-0.1l0.4-0.1l0.4-0.1
		l0.4-0.1l0.4-0.1l0.4-0.1l0.4-0.1l0.5,0l0.5,0l0.5,0l0.5,0h1.1l0.6,0l0.6,0l0.6,0l0.5,0l0.5,0.1l0.5,0.1l0.5,0.1l0.4,0.1l0.4,0.1
		l0.4,0.1l0.4,0.1l0.4,0.1l0.3,0.2l0.3,0.2l0.3,0.2l0.2,0.2l0.2,0.2l0.2,0.2l0.2,0.2l0.1,0.2l0.1,0.2l0.1,0.2l0.1,0.2l0.1,0.2
		l0.1,0.5l0.1,0.3l0,0.2l0,0.3v0.3l0,0.3l0,0.3v0.2l0,0.1l0,0.2l-0.1,0.1l-0.1,0.1l-0.1,0.1l-0.1,0.1l-0.1,0.1l-0.2,0.2L387.6,230.2
		z M369.6,228.7l0.2-0.2l0.2-0.2l0.2-0.2l0.1-0.2l0.1-0.2l0.1-0.2l0.1-0.3l0-0.3l0-0.3l0-0.2l0-0.3l-0.1-0.2l-0.1-0.2l-0.1-0.2
		l-0.1-0.2l-0.2-0.2l-0.2-0.2l-0.2-0.2l-0.2-0.1l-0.2-0.1l-0.2-0.1l-0.2-0.1l-0.2,0l-0.3,0H368l-0.3,0l-0.3,0.1l-0.3,0.1l-0.3,0.1
		l-0.2,0.2l-0.2,0.1l-0.3,0.2l-0.2,0.2l-0.2,0.2l-0.2,0.2l-0.2,0.2l-0.1,0.2l-0.1,0.3l-0.1,0.3l0,0.3l0,0.3l0,0.3l0,0.1l0,0.1l0,0.1
		l0.1,0.1l0,0.1l0.1,0.1l0.1,0.1l0.1,0.1l0.2,0.2l0.2,0.2l0.2,0.2l0.2,0.1l0.2,0.1l0.3,0.1l0.2,0.1l0.3,0.1l0.3,0l0.3,0l0.3,0l0.3,0
		l0.2-0.1l0.2-0.1l0.2-0.1l0.2-0.1l0.2-0.2L369.6,228.7z M352.3,232.3h10.2l-0.1,1.1h-5.1l-0.4,0l-0.4,0.1l-0.4,0.1l-0.3,0.1
		l-0.3,0.1l-0.3,0.1l-0.3,0.2l-0.2,0.1l-0.2,0.1l-0.2,0.1l-0.2,0.1l-0.1,0.1l-0.1,0.1l-0.1,0.1l-0.1,0.1l-0.1,0.1l-0.1,0.2l-0.1,0.2
		l-0.1,0.1l-0.1,0.3l-0.1,0.2l0,0.2v0.3l0,0.2l0.1,0.2l0,0.2l0,0.1l0.1,0.1l0.1,0.1l0.1,0.1l0.1,0.1l0.1,0.1l0.1,0.1l0.1,0.1
		l0.2,0.1l0.1,0.1l0.2,0.1l0.3,0.2l0.3,0.1l0.3,0.1l0.3,0.1l0.3,0.1l0.4,0.1l0.4,0l0.4,0h3.3l0.2,0l0.2,0l0.1,0l0.1,0l0.1,0l0,0.1
		l0,0l0.1,0l0,0.1l0,0.1l0,0.1v0.2l0,0.2l-0.1,0.2l-0.1,0.1l-0.1,0.1l-0.1,0.1l-0.1,0.1l-0.2,0.1l-0.2,0l-0.2,0l-0.3,0h-0.5l-0.6,0
		l-0.6,0l-0.6,0l-0.6,0l-0.5-0.1l-0.5-0.1l-0.4-0.1l-0.4-0.1l-0.4-0.1l-0.4-0.2l-0.4-0.2l-0.4-0.2l-0.4-0.2l-0.5,2.4l0.3,0.2
		l0.3,0.2l0.4,0.1l0.3,0.1l0.2,0.6l0.2,0.6l0.2,0.5l0.2,0.4l0.1,0.2l0.1,0.2l0.1,0.2l0.2,0.3l0.1,0.1l0.1,0.1l0.1,0.1l0.2,0.1
		l0.2,0.1l0.2,0.1l0.2,0.1l0.3,0.1l0.3,0.1l0.3,0.1l0.3,0.1l0.4,0l0.4,0.1l0.4,0l0.4,0l0.4,0l0.5,0l0.5,0l0.5,0l0.4,0l0.3,0l0.2,0
		l0.1,0l0.3-2.4l-0.9,0l-0.8,0l-0.3,0l-0.3,0l-0.3,0l-0.3-0.1l-0.2-0.1l-0.2-0.1l-0.2-0.1l-0.1-0.1l-0.1-0.1l-0.1-0.1l0,0l0-0.1
		v-0.1l0.1,0l0-0.1l0-0.1h0.3h0.4h0.4l0.4,0l0.4,0h0.4l0.4,0l0.4,0l0.4,0l0.4-0.1l0.4-0.1l0.3-0.1l0.3-0.1l0.3-0.1l0.3-0.1l0.3-0.1
		l0.1-0.1l0.1-0.1l0.1-0.1l0.1-0.1l0.2-0.2l0.1-0.2l0.1-0.1l0.1-0.2l0.1-0.1l0.1-0.1l0.1-0.2l0.1-0.2l0.1-0.2l0.1-0.2l0-0.2l0.1-0.2
		v-0.2v-0.2v-0.2l0-0.2l0-0.2l-0.1-0.3l-0.1-0.2l-0.1-0.1l-0.1-0.2l-0.1-0.1l-0.1-0.1l-0.1-0.1l-0.1-0.1l-0.1-0.1l-0.1-0.1l-0.2-0.1
		l-0.1-0.1l-0.1-0.1l-0.3-0.1l-0.3-0.1l-0.3-0.1L363,237l-0.4,0h-4l-0.3,0h-0.2l-0.2,0l-0.1,0l-0.1,0l-0.1,0l-0.1,0l-0.1-0.1l0-0.1
		l0-0.1l0-0.1v-0.1l0-0.2l0.1-0.1l0.1-0.1l0.1-0.1l0.1-0.1l0.1-0.1l0.2,0l0.2,0h7.6l0.3-3.3h2.2l0.2-2.1h-16.1L352.3,232.3z
		 M330.4,243.1l0,0.2l0,0.2v0.4l0,0.2l0,0.2l-0.1,0.2l-0.1,0.2l-0.1,0.2l-0.1,0.2L330,245l-0.2,0.1l-0.2,0.1l-0.2,0.1l-0.2,0.1
		l-0.2,0.1l-0.2,0.1l-0.2,0l-0.2,0l-0.2,0h-0.2l-0.2,0l-0.3-0.1l-0.2-0.1l-0.2-0.1l-0.2-0.1l-0.2-0.1L327,245l-0.1-0.1l-0.1-0.1
		l-0.1-0.2l-0.1-0.2l0-0.2v-0.4l0-0.2l0.1-0.2l0.2-0.4l0.1-0.2l0.1-0.2l0.1-0.1l0.2-0.1l0.2-0.1l0.2-0.1l0.2-0.1l0.2-0.1l0.2-0.1
		l0.2,0l0.2,0h0.2h0.2l0.2,0l0.2,0.1l0.2,0.1l0.2,0.1l0.1,0.1l0.2,0.1l0.1,0.1l0.1,0.2l0.1,0.1l0.1,0.1L330.4,243.1z M328.6,236.8
		l0-0.2l0-0.2l0.1-0.7l0.1-0.6l0.1-0.6l0.1-0.5l0.1-0.5l0-0.4l0-0.3l0-0.3h3.7l-0.5,5.1l-0.1,0.1l-0.1,0.1l-0.1,0.1l-0.1,0.1
		l-0.2,0.1l-0.2,0.1l-0.1,0.1l-0.2,0.1l-0.2,0.1l-0.2,0.1l-0.2,0l-0.2,0l-0.2,0l-0.2,0l-0.2,0l-0.2,0h-0.2l-0.2-0.1l-0.2,0l-0.1-0.1
		l-0.1-0.1l-0.1-0.1l-0.1-0.1l-0.1-0.1l-0.1-0.1l0-0.2l-0.1-0.2l0-0.2V237V236.8z M324.3,232.3h1.1l0,0.2l0,0.3l0,0.4l-0.1,0.5
		l-0.1,0.6l-0.1,0.7l-0.1,0.8l-0.1,0.9l0,0.2v0.2l0,0.2v0.2l0,0.2l0,0.2l0.1,0.2l0.1,0.2l0.1,0.2l0.1,0.2l0.1,0.2l0.1,0.2l0.1,0.2
		l0.1,0.2l0.1,0.2l0.2,0.2l0.1,0.2l0.2,0.2l0.2,0.1l0.2,0.1l0.2,0.1l0.2,0.1l0.2,0.1l0.2,0.1l0.2,0.1l0.2,0.1l0.2,0.1l0.4,0.1l0.2,0
		l0.2,0l0.2,0h0.4l0.4,0l0.4,0l0.4-0.1l0,0l0.3-0.1l0.3-0.1l0.3-0.1l0.3-0.2l-0.3,3.1h3.8l0.6-6.4l0.1-0.1l0.1-0.1l0.1-0.1l0.1-0.1
		l0.1-0.1l0.2-0.1l0.1-0.1l0.1-0.1l0.2-0.1l0.1-0.1l0.2-0.1l0.2,0l0.2,0l0.2-0.1h0.2l0.2,0l0.3,0l0.3,0l0.2,0l0.2,0l0.2,0.1l0.2,0.1
		l0.2,0.1l0.2,0.1l0.1,0.1l0.1,0.1l0.1,0.2l0.1,0.1l0.1,0.2l0,0.2v0.4l0,0.2l-0.1,0.2l-0.1,0.1l-0.1,0.2l-0.1,0.1l-0.1,0.1l-0.1,0.1
		l-0.1,0.1l-0.2,0.1l-0.2,0.1l-0.2,0.1l-0.2,0l-0.2,0l-0.2,0l-0.2,0l-0.3,0l-0.3,0l-0.3,0l-0.1,0l-0.1,0l-0.1,0l-0.1,0l-0.3,2.8
		l0.1,0.1l0.1,0l0.1,0.1l0.1,0.1l0.1,0.1l0.1,0l0.1,0l0.1,0l0.3,0l0.3,0l0.4,0l0.4,0l0.3,0l0.3,0l0.3,0l0.2,0l0.3,0l0.2-0.1l0.2-0.1
		l0.2-0.1l0.2-0.1l0.2-0.1l0.2-0.1l0.2-0.1l0.2-0.1l0.2-0.1l0.2-0.1l0.2-0.1l0.2-0.1l0.2-0.2l0.2-0.2l0.2-0.1l0.2-0.2l0.2-0.2
		l0.1-0.2l0.1-0.2l0.1-0.2l0.1-0.2l0.1-0.2l0.1-0.5l0.1-0.2l0.1-0.3l0-0.3l0-0.3l0-0.3v-0.2l0-0.3l0-0.3l-0.1-0.5l-0.1-0.2l-0.1-0.2
		l-0.1-0.2l-0.1-0.2l-0.1-0.2l-0.1-0.2l-0.1-0.2l-0.2-0.2l-0.2-0.2l-0.2-0.2l-0.2-0.2l-0.2-0.1l-0.2-0.1l-0.2-0.1l-0.2-0.1l-0.2-0.1
		l-0.2-0.1l-0.2-0.1l-0.2-0.1l-0.2-0.1l-0.2,0l-0.3-0.1l-0.3,0l-0.3,0h-0.7l-0.4,0.1l-0.4,0.1l-0.4,0.1l-0.4,0.1l-0.4,0.1l-0.4,0.2
		l-0.4,0.2l0.2-2.2h8.9l0.2-2.1h-21.2L324.3,232.3L324.3,232.3z M324.7,229.4l0.2-0.1l0.2-0.1l0.2-0.1l0.2-0.1l0.3-0.2l0.3-0.2
		l0.3-0.2l0.2-0.3l0.2-0.3l0.2-0.3l0.2-0.3l0.2-0.3l0.2-0.4l0.2-0.4l0.2-0.4l0.2-0.4h-4.1l0,0.2l0,0.2l-0.1,0.2l-0.1,0.1l-0.1,0.1
		l-0.1,0.1l-0.1,0.1l-0.2,0.1l-0.2,0.1l-0.2,0.1l-0.2,0.1l-0.3,0.1l-0.3,0l-0.3,0l-0.3,0l-0.3,0H321l-0.3,0l-0.3,0l-0.3-0.1l-0.1,0
		l-0.1-0.1l-0.1,0l-0.1,0l-0.1-0.1l-0.1-0.1l-0.1-0.1l-0.1-0.1l-0.1-0.1l-0.1-0.1l-0.1-0.1l-0.1-0.1l0-0.1l0-0.1l0-0.2l0-0.1h-4.1
		l0.1,0.4l0.1,0.4l0.1,0.4l0.1,0.4l0.1,0.3l0.1,0.3l0.2,0.3l0.2,0.3l0.2,0.3l0.2,0.3l0.2,0.2l0.3,0.2l0.2,0.1l0.2,0.1l0.2,0.1
		l0.2,0.1l0.2,0.1l0.2,0.1l0.3,0.1l0.3,0.1l0.3,0.1l0.3,0l0.3,0.1l0.3,0l0.3,0l0.3,0l0.3,0l0.3,0h0.4l0.3,0l0.4,0l0.3,0l0.3,0
		l0.3-0.1l0.3,0l0.6-0.2l0.3-0.1l0.3-0.1L324.7,229.4L324.7,229.4z M308,232.3l0.2-2h15.4l-0.2,2.1h-2l-1.1,11.8h-3.8l1.1-11.8h-2
		v-0.1h-1.5l-1.1,11.9h-3.8l0.6-5.9h-2.9l0.1-1.6l0.1-1.1h2.9l0.3-3.3H308z M307.1,239.4l0-0.3l0-0.1l0-0.1l-0.1-0.2l-0.1-0.2
		l-0.1-0.2l-0.1-0.2l-0.1-0.2l-0.2-0.2l-0.2-0.2l-0.2-0.2l-0.2-0.2l-0.2-0.2l-0.3-0.2l0.2-0.1l0.2-0.1l0.4-0.2l0.2-0.2l0.2-0.1
		l0.2-0.1l0.1-0.2l0.1-0.2l0.1-0.2l0.1-0.2l0.2-0.4l0-0.1l0-0.1l0-0.2l0.1-0.2v-0.3l0-0.2l0-0.2l0-0.2l-0.1-0.2l-0.1-0.2l-0.1-0.2
		l-0.1-0.2l-0.1-0.2l-0.1-0.2l-0.2-0.2l-0.1-0.2l-0.2-0.2l-0.2-0.1l-0.2-0.1l-0.2-0.1l-0.2-0.1l-0.2-0.1l-0.2-0.1l-0.2-0.1l-0.2-0.1
		l-0.2-0.1l-0.2-0.1l-0.2,0l-0.5-0.1l-0.5-0.1l-0.5,0l-0.6,0l-0.3,0l-0.4,0l-0.3,0.1l-0.4,0.1l-0.4,0.1l-0.4,0.1l-0.4,0.1l-0.4,0.1
		l-0.4,0.2l-0.4,0.2l-0.4,0.1l-0.4,0.2l1.1,2.7l0.4-0.2l0.4-0.2l0.4-0.1l0.4-0.1l0.4-0.1l0.4-0.1l0.8-0.1h0.2l0.2,0l0.2,0l0.2,0
		l0.2,0l0.1,0.1l0.1,0.1l0.1,0.1l0.1,0.1l0.1,0.1l0.1,0.1l0.1,0.1l0,0.1l0,0.1l0,0.1l0,0.1l0,0.1l0,0.1l0,0.1l0,0.1l-0.1,0.1
		l-0.1,0.1l-0.1,0.1l-0.1,0.1l-0.1,0.1l-0.1,0l-0.1,0.1l-0.1,0l-0.1,0l-0.1,0h-3l-0.2,2.4h2.7l0.2,0l0.2,0l0.2,0l0.1,0.1l0.1,0
		l0.1,0.1l0.1,0.1l0.2,0.2l0.1,0.1l0.1,0.1l0,0.1l0,0.1l0,0.1v0.2v0.1l0,0.2l-0.1,0.2l-0.1,0.2l-0.1,0.2l-0.1,0.2l-0.1,0.1l-0.1,0.1
		l-0.2,0.1l-0.1,0.1L302,241l-0.2,0.1l-0.2,0l-0.2,0.1l-0.3,0l-0.3,0l-0.3,0h-0.2l-0.2,0H300l-0.4-0.1l-0.2-0.1l-0.2-0.1l-0.2-0.1
		l-0.2-0.1l-0.2-0.1l-0.2-0.1l-0.2-0.1l-0.2-0.1l-0.2-0.2l-0.2-0.1l-0.2-0.1l-0.2-0.2l-0.2-0.2l-0.2-0.2l-0.2-0.2l-0.2-0.2l-0.2-0.2
		l-0.2-0.2l-0.2-0.2l-2,2.6l0.1,0.2l0.2,0.2l0.2,0.2l0.2,0.2l0.2,0.2l0.5,0.5l0.3,0.2l0.3,0.2l0.3,0.2l0.3,0.2l0.3,0.2l0.3,0.2
		l0.3,0.1l0.3,0.1l0.3,0.1l0.3,0.1l0.3,0.1l0.3,0.1l0.3,0.1l0.3,0.1l0.3,0l0.3,0l0.3,0l0.2,0h0.2l0.2,0h0.2l0.3,0h0.3l0.3,0l0.3,0
		l0.3,0l0.3-0.1l0.3-0.1l0.3-0.1l0.2-0.1l0.3-0.1l0.2-0.1l0.2-0.1l0.2-0.1l0.2-0.1l0.2-0.1l0.2-0.1l0.2-0.2l0.2-0.1l0.2-0.1l0.1-0.2
		l0.2-0.2l0.1-0.2l0.1-0.2l0.1-0.2l0.1-0.2l0.1-0.2l0.1-0.2l0.1-0.2l0-0.3l0-0.1l0-0.2l0-0.3l0-0.3l0-0.3l0-0.3L307.1,239.4
		L307.1,239.4z M267.3,232.3h8.7l-0.6,6.2l-0.1,0.1l-0.1,0.1l-0.1,0.1l-0.1,0.1l-0.1,0.1l-0.3,0.2l-0.2,0.1l-0.2,0.1l-0.2,0.1
		l-0.2,0l-0.2,0.1l-0.2,0l-0.2,0l-0.2,0l-0.2,0h-0.2l-0.2,0l-0.1,0l-0.1-0.1l-0.1-0.1l-0.1-0.1l-0.1-0.1l-0.1-0.1l-0.1-0.1l-0.1-0.1
		l-0.1-0.1l0-0.2l0-0.2v-0.2v-0.2V238l0-0.2l0.1-0.2l0-0.2l0.1-0.2l0.1-0.1l0.1-0.1l0.1-0.1l0.1-0.1l0.1-0.1l0.1-0.1l0.2-0.1
		l0.2-0.1l0.2-0.1l0.2,0l0.2,0l0.2,0h0.2l0.2,0l0.2,0l0.2,0.1l0.2,0.1l0.2,0.1l0.2,0.2l0.2,0.2l0.3-2.9l-0.1-0.1l-0.1-0.1l-0.1-0.1
		l-0.2-0.1l-0.1-0.1l-0.1,0l-0.2-0.1l-0.2-0.1l-0.2,0l-0.2,0l-0.2,0l-0.2,0l-0.4,0l-0.5,0l-0.2,0l-0.3,0l-0.2,0l-0.2,0l-0.2,0
		l-0.2,0.1l-0.2,0.1l-0.2,0.1l-0.2,0.1l-0.2,0.1L270,234l-0.2,0.1l-0.2,0.1l-0.2,0.2l-0.2,0.1l-0.2,0.2l-0.2,0.2l-0.1,0.2l-0.2,0.2
		l-0.1,0.2l-0.1,0.2l-0.1,0.2l-0.1,0.2l-0.1,0.2l-0.1,0.2l-0.1,0.2l-0.1,0.2l-0.1,0.2l-0.1,0.2l0,0.3l0,0.3l0,0.3l0,0.3v0.7l0,0.2
		l0,0.2l0.1,0.2l0,0.2l0.1,0.2l0.2,0.4l0.1,0.2l0.1,0.2l0.1,0.2l0.1,0.2l0.1,0.2l0.1,0.2l0.1,0.1l0.2,0.1l0.2,0.1l0.2,0.1l0.2,0.1
		l0.2,0.1l0.2,0.1l0.2,0.1l0.2,0.1l0.2,0.1l0.2,0l0.2,0l0.2,0l0.2,0h0.2l0.5,0l0.5,0l0.5-0.1l0.5-0.1l0.5-0.1l0.5-0.1l0.5-0.2
		l0.4-0.2l-0.2,2.3h3.8l0.6-6.4l0.1-0.2l0.1-0.1l0.1-0.2l0.1-0.1l0.1-0.1l0.2-0.1l0.1-0.1l0.1-0.1l0.1-0.1l0.2-0.1l0.1-0.1l0.1,0
		l0.2-0.1l0.1,0l0.3,0l0.3,0l0.2,0l0.2,0l0.2,0l0.2,0l0.1,0.1l0.1,0.1l0.1,0.1l0.1,0.1l0.1,0.1l0.1,0.1l0,0.1l0.1,0.3l0,0.2v0.2
		l0,0.2l0,0.2l0,0.2l0,0.2l-0.1,0.2l-0.1,0.2l-0.1,0.1l-0.1,0.2l-0.1,0.1l-0.1,0.1l-0.1,0.1l-0.1,0.1l-0.2,0l-0.2,0l-0.2,0l-0.2,0
		l-0.2,0l-0.2,0l-0.1,0l-0.2-0.1l-0.2,0l-0.2,0l-0.2-0.1l-0.2-0.1l-0.3,3.5l0.1,0.1l0.1,0.1l0.1,0.1l0.1,0l0.1,0l0.1,0l0.2,0h0.2
		l0.2,0h0.8l0.3,0l0.2,0l0.2,0l0.2,0l0.2-0.1l0.2-0.1l0.2-0.1l0.2-0.1l0.2-0.1l0.2-0.1l0.2-0.1l0.2-0.1l0.2-0.1l0.2-0.1l0.2-0.2
		l0.2-0.1l0.2-0.2l0.2-0.2l0.2-0.2l0.2-0.2l0.2-0.2l0.1-0.2l0.1-0.2l0.1-0.2l0.1-0.2l0.1-0.2l0.2-0.5l0-0.2l0.1-0.3l0.1-0.5l0-0.3
		l0-0.3v-0.5l0-0.3l0-0.2l0-0.2l-0.1-0.2l-0.1-0.2l-0.1-0.2l-0.2-0.4l-0.1-0.2l-0.1-0.2l-0.1-0.2l-0.2-0.2l-0.2-0.2l-0.2-0.2
		l-0.2-0.2l-0.2-0.1l-0.2-0.1l-0.2-0.2l-0.2-0.1l-0.2-0.1l-0.2-0.1l-0.2-0.1l-0.2-0.1l-0.2-0.1l-0.3,0l-0.3,0l-0.3,0h-0.4l-0.2,0
		l-0.2,0l-0.2,0l-0.4,0.1l-0.4,0.1l-0.4,0.1l-0.4,0.2l-0.4,0.2l-0.4,0.2l0.2-2.1H290l0.2-2.1h-22.7L267.3,232.3L267.3,232.3z
		 M267.7,229.4l-0.3,0l-0.2-0.1l-0.2-0.1l-0.2-0.1l-0.2-0.1l-0.2-0.1l-0.2-0.2l-0.2-0.2l-0.1-0.2l-0.1-0.1l-0.1-0.1l-0.1-0.1l0-0.1
		l0-0.1l0-0.1l0-0.1l0-0.1l0-0.3l0-0.3l0-0.3l0.1-0.3l0.1-0.3l0.1-0.2l0.1-0.2l0.2-0.2l0.2-0.2l0.2-0.2l0.2-0.2l0.2-0.1l0.2-0.2
		l0.3-0.1l0.3-0.1l0.3-0.1l0.3,0h0.3l0.3,0l0.3,0l0.2,0.1l0.2,0.1l0.2,0.1l0.2,0.1l0.2,0.2l0.2,0.2l0.2,0.2l0.1,0.2l0.1,0.2l0.1,0.2
		l0.1,0.2l0,0.3v0.2l0,0.3l-0.1,0.3l-0.1,0.3l-0.1,0.2l-0.1,0.2l-0.1,0.2l-0.2,0.2l-0.1,0.2l-0.2,0.2l-0.2,0.2l-0.2,0.2l-0.2,0.1
		l-0.2,0.1l-0.2,0.1l-0.2,0.1l-0.3,0l-0.3,0L267.7,229.4L267.7,229.4z M256.6,239.2l-0.4,0.1l-0.2,0l-0.2,0l-0.2,0l-0.1,0l-0.3,0
		H255l-0.2,0l-0.2,0l-0.2,0l-0.2-0.1l-0.2-0.1l-0.1,0l-0.1-0.1l-0.1-0.1l-0.1-0.1l-0.1-0.1l-0.1-0.2l0-0.2v-0.2l0-0.2l0-0.2l0-0.2
		l0-0.1l0-0.1l0-0.1l0.1-0.1l0.1-0.1l0.1-0.1l0.1-0.1l0.1-0.1l0.1-0.1l0.1-0.1l1,0.9l1.8,1.6L256.6,239.2z M266.2,230.2h-1l-0.1-0.2
		l-0.2-0.4l-0.2-0.4l-0.2-0.4l-0.2-0.4l-0.2-0.4l-0.2-0.4l-0.2-0.4l-0.2-0.4l-0.2-0.3l-0.3-0.3l-0.3-0.4l-0.3-0.3l-0.3-0.3l-0.3-0.3
		l-0.3-0.3l-0.3-0.3l-0.2-0.2l-0.3-0.3l-0.3-0.2l-0.3-0.2l-0.3-0.2L260,223l-2.7,2.2l0.4,0.2l0.4,0.2l0.4,0.3l0.3,0.3l0.3,0.3
		l0.3,0.3l0.3,0.3l0.3,0.3l0.3,0.4l0.3,0.4l0.3,0.4l0.3,0.4l0.3,0.4l0.2,0.4l0.2,0.4h-1.3l-0.1-0.1l-0.2-0.4l-0.3-0.4l-0.3-0.4
		l-0.3-0.4l-0.4-0.4l-0.4-0.4l-0.4-0.4l-0.4-0.3l-0.4-0.3l-0.4-0.3l-1.8,2.5l0.2,0l0.2,0l0.2,0l0.2,0.1l0.1,0.1l0.2,0.1l0.1,0.1
		l0.1,0.1l0.1,0.1l0.2,0.3l0.2,0.3l0,0h-7.5l-0.2,2.1h10.3l-0.5,5.7l-0.2,0.1l-0.1,0.1l-0.2,0.1l-0.1,0l-0.1,0.1l-0.1,0.1l-2.7-2.6
		l0.3,0l0.2,0h0.2l0.2,0l0.2,0l0.3,0l0.3,0.1l0.4,0.1l0.3,0.1l0.3,0.1l0.2,0l0.1,0l0.3-2.4l-0.1-0.1l-0.1-0.1l-0.1,0l-0.1-0.1
		l-0.3-0.1l-0.4-0.1l-0.5-0.1l-0.5,0l-0.6,0l-0.7,0h-0.3l-0.1,0l-0.2,0l-0.3,0l-0.3,0l-0.5,0.1l-0.2,0.1l-0.3,0.1l-0.2,0.1l-0.2,0.1
		l-0.2,0.1l-0.2,0.1l-0.2,0.1l-0.2,0.1l-0.2,0.1l-0.2,0.1l-0.2,0.2l-0.2,0.2l-0.2,0.2l-0.2,0.2l-0.2,0.2l-0.2,0.2l-0.1,0.2l-0.1,0.2
		l-0.1,0.2l-0.1,0.2l-0.1,0.3l-0.1,0.2l-0.1,0.3l-0.1,0.3l0,0.3l0,0.3l0,0.3v0.3l0,0.3l0,0.2l0,0.2l0.1,0.2l0.1,0.2l0.1,0.2l0.1,0.2
		l0.1,0.2l0.1,0.2l0.1,0.2l0.2,0.2l0.2,0.2l0.2,0.2l0.2,0.2l0.2,0.1l0.2,0.1l0.2,0.1l0.2,0.1l0.2,0.1l0.2,0.1l0.2,0.1l0.2,0l0.2,0.1
		l0.2,0.1l0.2,0l0.2,0l0.2,0l0.2,0h0.5l0.7,0l0.3,0h0l0.3,0l0.3,0l0.3,0l0.3-0.1l0.3,0l0.3-0.1l0.3-0.1l0.3-0.1l0.3-0.1l0.3-0.1
		l0.3-0.1l0.2-0.1l0.2-0.1l-0.3,2.8h3.8l1.1-11.8h2.5l0.2-1.5L266.2,230.2L266.2,230.2z M196.7,230.2h49l-0.2,2.1h-3.6l-0.3,2.5
		l0.2,0.2l0.1,0.2l0.3,0.4l0.1,0.2l0.1,0.2l0.1,0.3l0.1,0.2l0.1,0.3l0,0.3l0,0.3l0,0.3l0,0.3l0,0.3l0,0.3l0,0.4l0,0.3l-0.1,0.3
		l-0.1,0.3l-0.1,0.3l-0.1,0.3l-0.1,0.3l-0.1,0.3l-0.1,0.3l-0.1,0.2l-0.2,0.3l-0.1,0.2l-0.2,0.2l-0.2,0.2l-0.2,0.2L241,243l-0.2,0.2
		l-0.2,0.2l-0.2,0.2l-0.2,0.2L240,244l-0.2,0.2l-0.2,0.1l-0.2,0.1l-0.2,0.1l-0.2,0.1l-0.2,0.1l-0.2,0.1l-0.2,0l-0.2,0l-0.3,0l-0.5,0
		h-0.6l-0.6,0l-0.5,0l-0.4-0.1l-0.2,0l-0.2,0l-0.1-0.1l-0.1,0l-0.1-0.1l-0.1,0l-0.1-0.1l-0.1-0.1l0.3-2.9l0.1,0.1l0.1,0.1l0.3,0.1
		l0.3,0.1l0.4,0.1l0.3,0l0.3,0h0.3l0.2,0l0.2,0l0.2-0.1l0.2-0.1l0.4-0.3l0.2-0.1l0.1-0.2l0.1-0.2l0.1-0.2l0.1-0.2l0.1-0.3l0.1-0.3
		l0.1-0.3l0.1-0.3l0-0.3l0-0.3l0-0.3v-0.3l0-0.3l0-0.2l-0.1-0.2l0-0.2l-0.1-0.2l-0.1-0.1l-0.1-0.1l-0.1-0.1l0-0.1l-0.1-0.1l-0.1-0.1
		l-0.1-0.1l-0.1,0l-0.1,0l-0.1,0l-0.1,0l-0.1,0l-0.2,0h-0.2h-0.2l-0.2,0l-0.2,0.1l-0.2,0.1l-0.2,0.1l-0.2,0.1l-0.2,0.2l-0.2,0.2
		l-0.1,0.3l-0.1,0.2l-0.1,0.2l-0.1,0.2l-0.1,1.3h-3.6l0.2-1.5l0-0.2l0-0.2l0-0.1l-0.1-0.1l-0.1-0.1l-0.1-0.1l-0.2-0.1l-0.1-0.1
		l-0.2-0.1l-0.2,0l-0.2,0l-0.2,0h-0.3l-0.2,0l-0.1,0l-0.1,0.1l-0.1,0l-0.1,0l-0.1,0.1l-0.1,0.1l-0.1,0.1l-0.1,0.1l-0.1,0.1l-0.1,0.1
		l-0.1,0.1l-0.1,0.1l-0.1,0.2l-0.1,0.2l-0.1,0.2l-0.1,0.2l-0.1,0.3l-0.1,0.3l-0.1,0.3l0,0.3l0,0.3l0,0.3l0,0.3l0,0.3l0.1,0.3
		l0.1,0.2l0.1,0.1l0.1,0.1l0.1,0.1l0.1,0.1l0.1,0.2l0.2,0.1l0.2,0.1l0.2,0.1l0.2,0l0.2,0.1l0.2,0h0.2l0.2,0l0.2-0.1l0.2-0.1l0.2-0.1
		l0.3-0.1l0.3-0.1l0.3-0.1l0.3-0.2l-0.3,3.2l-0.1,0.1l-0.1,0.1l-0.1,0.1l-0.1,0l-0.3,0.1l-0.3,0.1l-0.4,0.1l-0.4,0l-0.5,0l-0.6,0
		l-0.5,0l-0.2,0l-0.2-0.1l-0.2-0.1l-0.2-0.1l-0.2-0.1l-0.4-0.2l-0.2-0.1l-0.2-0.1l-0.2-0.1l-0.2-0.2l-0.2-0.2l-0.2-0.2l-0.3-0.4
		l-0.2-0.2l-0.1-0.2l-0.1-0.2l-0.1-0.3l-0.1-0.2l-0.1-0.3l-0.1-0.3l-0.1-0.3L224,241l0-0.3l0-0.3l0-0.3l0-0.3l0-0.3l0-0.3l0-0.3
		l0-0.3l0.1-0.3l0.1-0.3l0.1-0.3l0.1-0.3l0.1-0.3l0.1-0.3l0.3-0.5l0.2-0.3l0.2-0.2l0.2-0.2l0.2-0.2l0.2-0.2l0.2-0.2l0.2-0.2l0.2-0.2
		l0.2-0.1l0.2-0.1l0.2-0.1l0.2-0.1l0.2-0.1l0.2-0.1l0.2-0.1l0.2-0.1l0.2-0.1l0.3-0.1l0.2,0l0.3,0l0.3,0l0.3,0l0.3,0l0.3,0l0.3,0
		l0.3,0l0.3,0.1l0.3,0.1l0.3,0.1l0.3,0.1l0.2,0.1l0.2,0.1l0.2,0.2l0.2,0.2l0.2,0.2l0.2,0.2l0.2,0.2l0.2,0.3l0.2-0.3l0.3-0.3l0.3-0.4
		l0.4-0.4l0.3-0.2l0.3-0.1l0.3-0.1l0.2-0.1l0.2-0.1l0.2-0.1l0.2,0l0.2,0l0.3,0l0.3,0l0.3,0l0.3,0l0.1-1.4h-16.6l-0.4,3.9h-4.8
		l-0.3,0.1l-0.3,0.1l-0.3,0.1l-0.3,0.1l-0.2,0.1l-0.2,0.1l-0.2,0.1l-0.2,0.2l-0.1,0.2l-0.2,0.2l-0.1,0.2l-0.1,0.2l-0.1,0.2l-0.1,0.3
		l0,0.2l0,0.3v0.4l0,0.1l0,0.1l0,0.1l0.1,0.1l0,0.1l0.1,0.1l0.1,0.1l0.1,0.1l0.1,0.1l0.1,0.1l0.1,0.1l0.1,0.1l0.1,0.1l0.2,0.1
		l0.2,0.1l0.2,0.1l0.2,0.1l0.3,0.1l0.3,0l0.3,0l0.3,0l0.2,0h0.2l0.3,0l0.2,0l0.2-0.1l0.2,0l0.2-0.1l0.2-0.1l0.2-0.1l0.2-0.1l0.2-0.1
		l0.3-0.1l0.2-0.1l0.2-0.1l0.2-0.1l0.2-0.1l0.3-0.2l0.3-0.2l0.2-0.2l0.2-0.2l0.2-0.2l0.1-0.1l0.1-0.1l0.1-0.1l0.9,3.5l-0.5,0.3
		l-0.5,0.3l-0.5,0.3l-0.5,0.3l-0.5,0.2l-0.5,0.2l-0.5,0.2l-0.6,0.2l-0.5,0.1l-0.2,0l4,4.8l-2.7,2.2l-3.3-4.4l-3.8,3.6l-2.4-2.3
		l4.7-4l-0.2,0l-0.6-0.2l-0.3-0.1l-0.3-0.1l-0.3-0.1l-0.3-0.2l-0.2-0.1l-0.2-0.2l-0.2-0.2l-0.2-0.2l-0.2-0.2l-0.2-0.2l-0.2-0.2
		l-0.2-0.3l-0.2-0.3l-0.1-0.3l-0.1-0.3l-0.1-0.3l-0.1-0.3l-0.1-0.3l-0.1-0.3l0-0.3l0-0.3v-0.3l0-0.4l0-0.4l0.1-0.4l0.1-0.3l0.1-0.3
		l0.1-0.3l0.1-0.3l0.1-0.3l0.2-0.3l0.2-0.3l0.2-0.3l0.2-0.3l0.3-0.2l0.3-0.2l0.3-0.2l0.3-0.2l0.3-0.2l0.4-0.2l0.4-0.2l0.4-0.2
		l0.4-0.1l0.4-0.1l0.4-0.1l0.2,0l0.2,0h0.2l0.2,0h1.8l0.1-1.1h-22.3l-1.1,11.8h-3.8l0.4-4.7h-3.7l0.2-2.8h3.7l0.4-4.4h-4.3l0.1,0.1
		l0.1,0.2l0.1,0.1l0.1,0.1l0.1,0.1l0.1,0.2l0,0.1l0,0.2l0,0.2l0,0.2l0,0.2v0.2l0,0.2v0.2l0,0.2l0,0.2l0,0.3l0,0.3l0,0.3l0,0.3
		l-0.1,0.3l-0.1,0.3l-0.1,0.2l-0.1,0.2l-0.1,0.2l-0.1,0.2l-0.1,0.2l-0.1,0.2l-0.1,0.2l-0.2,0.2l-0.2,0.2l-0.2,0.2l-0.2,0.1l-0.2,0.1
		l-0.2,0.1l-0.2,0.1l-0.2,0.1l-0.2,0.1l-0.2,0.1l-0.2,0.1l-0.2,0.1l-0.2,0l-0.2,0.1l-0.2,0l-0.3,0h-0.5l-0.3,0l0,0.2v0.2l0,0.2
		l0.1,0.2l0.1,0.2l0.1,0.2l0.1,0.2l0.1,0.2l0.1,0.1l0.2,0.1l0.2,0.1l0.2,0.1l0.2,0.1l0.3,0l0.3,0l0.3,0l0.5,0l0.5,0l0.5-0.1l0.6-0.1
		l0.4-0.1l0.3,0l0.2-0.1l0.1,0l-0.3,2.9l0,0v0l0,0l-0.1,0l-0.3,0.1l-0.5,0.1l-0.3,0.1l-0.3,0l-0.3,0l-0.3,0l-0.3,0l-0.3,0h-0.3
		l-0.3,0l-0.5,0l-0.5,0l-0.5-0.1l-0.4-0.1l-0.4-0.1l-0.4-0.1l-0.4-0.1l-0.3-0.1l-0.2-0.1l-0.1-0.1l-0.1-0.1l-0.1-0.1l-0.1-0.1
		l-0.1-0.1l-0.1-0.1l-0.1-0.1l-0.2-0.2l-0.1-0.1l-0.1-0.1l-0.1-0.1l-0.1-0.1l-0.1-0.1l0-0.2l-0.1-0.4l-0.1-0.4l-0.1-0.4l0-0.4l0-0.5
		l0-0.4l0-0.5l0.1-0.4h-1.3l0.2-2.5h3l0.2,0l0.2,0l0.2,0h0.2l0.5,0l0.2,0l0.2-0.1l0.2-0.1l0.2-0.1l0.2-0.1l0.1-0.1l0.1-0.1l0.1-0.1
		l0.1-0.2l0.1-0.2l0.1-0.2l0.1-0.2l0-0.2l0-0.3l0-0.2l0-0.2l0-0.2l-0.1-0.2l0-0.1l-0.1-0.1l0-0.1l0-0.1l-0.2-0.1l-0.1-0.1l-0.1-0.1
		l-0.2-0.1l-0.2-0.1h-0.1l-0.1,0l-0.1,0h-5.1l0.2-2.1h15l-0.1-0.2l-0.2-0.3l-0.2-0.3l-0.2-0.3l-0.2-0.3l-0.2-0.3l-0.2-0.3l-0.3-0.3
		l-0.3-0.2l-0.6-0.5l-0.3-0.2l-0.3-0.2l-0.3-0.2l-0.3-0.2l-0.4-0.2l2.5-2.2l0.2,0.1l0.2,0.1l0.3,0.1l0.2,0.1l0.2,0.2l0.2,0.2
		l0.3,0.2l0.2,0.2l0.3,0.2l0.3,0.3l0.3,0.3l0.3,0.3l0.2,0.3l0.3,0.3l0.2,0.3l0.3,0.3l0.4,0.7l0.2,0.4l0.2,0.4l0.2,0.4l0.2,0.4
		l0.2,0.4L196.7,230.2z M207.8,236.9l0-0.2l-0.1-0.2l-0.1-0.1l-0.1-0.1l-0.1-0.1l-0.1-0.1l-0.1-0.1l-0.1-0.1h-3.2l0.1,0.1l0.1,0.1
		l0.1,0.1l0.1,0.1l0.1,0.1l0,0.1l0.1,0.1l0,0.1l0,0.2l0,0.1l0,0.2l0,0.2l0,0.4l0,0.4l0,0.1l0,0.1l0,0.1l0,0.1l-0.1,0.1l-0.1,0.1
		l-0.1,0.1l-0.1,0.1L204,239l-0.1,0l-0.1,0l-0.1,0l-0.3,0l-0.2,0l-0.1,0l-0.1,0l-0.1,0l-0.1-0.1l-0.1,0l-0.1-0.1l-0.1-0.1l-0.1-0.1
		l-0.1-0.1l-0.1-0.1l-0.1-0.1l0-0.1l-0.1-0.1l0-0.1l0-0.1v-0.4l0-0.2l0-0.2l0.1-0.2l0.1-0.2l0.1-0.2l0.1-0.2l0.1-0.1l0.1-0.1
		l0.1-0.1l0.2-0.1l0.2-0.1l0.2-0.1l0.2,0l0.2,0h7.2l0.2-2.2h-8.1l-0.3,0l-0.3,0l-0.3,0l-0.3,0l-0.3,0.1l-0.3,0.1l-0.3,0.1l-0.3,0.1
		l-0.3,0.1l-0.3,0.2l-0.3,0.1l-0.2,0.2l-0.2,0.2l-0.2,0.2l-0.2,0.2l-0.2,0.2l-0.2,0.3l-0.1,0.3l-0.1,0.3l-0.1,0.3l-0.1,0.3l-0.1,0.3
		l-0.1,0.3l-0.1,0.3l0,0.2l0,0.2l0,0.2l0,0.2l0,0.2l0,0.2l0.1,0.2l0.1,0.2l0.1,0.2l0.1,0.2l0.1,0.2l0.1,0.2l0.1,0.2l0.1,0.2l0.1,0.2
		l0.2,0.2l0.2,0.2l0.2,0.1l0.2,0.2l0.2,0.1l0.2,0.1l0.2,0.1l0.2,0.1l0.2,0.1l0.2,0.1l0.2,0.1l0.2,0.1l0.2,0l0.3,0l0.3,0l0.3,0l0.3,0
		h0.3l0.3,0l0.2,0l0.2-0.1l0.2,0l0.2-0.1l0.2,0l0.2-0.1l0.2-0.1l0.2-0.1l0.2-0.1l0.2-0.1l0.2-0.1l0.2-0.1l0.2-0.1l0.2-0.1l0.2-0.2
		l0.2-0.2l0.1-0.2l0.2-0.2l0.1-0.2l0.1-0.2l0.1-0.2l0.1-0.2l0.1-0.2l0.1-0.2l0.1-0.2l0.1-0.2l0.1-0.2l0-0.2l0-0.2l0-0.2l0-0.3v-0.4
		l0-0.3L207.8,236.9L207.8,236.9z"/>
	<rect id="XMLID_106_" x="76.1" y="212.1" class="st1" width="75.2" height="75.7"/>
	<path id="XMLID_120_" class="st2" d="M138.6,249.5l-14.9-14.6l-3.6,0h-5.9v-1.7l5.9,0l3.6,0l15.9,16.2L138.6,249.5z M133.7,249.6
		l-10-9.7h-3.6l-5.9,0l0-1.7l5.9-0.1l3.6,0l11.1,11.4L133.7,249.6z M120.1,271.1l-5.5,5.5l-0.2-1.2l5.7-5.8l8.8-9.1v-9.6h1.7
		l0.1,9.7L120.1,271.1z M120.1,264.5l3.9-4.1v-9.6h1.7l0.1,9.7l-5.7,5.6l-5.6,5.5l-0.2-1.1L120.1,264.5z M107.8,253.2l-3.2-3.3
		l3.2-3.1l6.5-6.4l5.9,6.2l3.4,3.6l-3.4,3.4l-6.2,6.1L107.8,253.2z M107.8,267.4l-3.7,0l-15.9-16.2l1.1-0.2l14.9,14.6h3.6l5.9,0v1.7
		L107.8,267.4z M94.2,251l10,9.7l3.6,0l5.9,0v1.7l-5.9,0.1l-3.7,0L93,251.1L94.2,251z M113.5,230.1l-5.7,6l-3.9,4.1v9.6h-1.7
		l-0.1-9.6l5.7-5.7l5.6-5.5L113.5,230.1z M107.8,229.5l5.5-5.4l0.2,1.1l-5.6,5.8l-8.8,9.1v9.6h-1.7l-0.1-9.6L107.8,229.5z
		 M124.1,230.2v-10.5l-10.6,0l-5.7,6.1L94.3,240H84.2v10.3l19.5,20.3v10h9.9l6.4-6.5l13.2-13.4h9.8v-11.3L124.1,230.2z"/>
</g>
</svg>
