<svg xmlns="http://www.w3.org/2000/svg" xmlns:xlink="http://www.w3.org/1999/xlink" width="1080" zoomAndPan="magnify" viewBox="0 0 810 809.999993" height="1080" preserveAspectRatio="xMidYMid meet" version="1.0"><path fill="#d3fbff" d="M 617.597656 76.457031 C 682.113281 122.289062 717.902344 208.414062 748.648438 297.058594 C 778.890625 386.207031 803.589844 477.871094 784.941406 561.480469 C 765.785156 645.085938 702.78125 720.636719 626.164062 751.863281 C 549.046875 783.59375 458.320312 771.503906 371.121094 765.964844 C 283.917969 760.925781 200.753906 761.933594 145.8125 723.152344 C 90.871094 684.371094 64.15625 605.800781 43.492188 528.238281 C 22.320312 450.675781 6.695312 374.117188 24.335938 305.621094 C 42.484375 236.621094 93.390625 175.175781 156.398438 129.34375 C 218.898438 83.003906 292.992188 52.28125 376.664062 39.1875 C 460.335938 26.09375 553.078125 31.128906 617.597656 76.457031 Z M 617.597656 76.457031 " fill-opacity="1" fill-rule="nonzero"/></svg>