<svg xmlns="http://www.w3.org/2000/svg" xmlns:xlink="http://www.w3.org/1999/xlink" width="1080" zoomAndPan="magnify" viewBox="0 0 810 809.999993" height="1080" preserveAspectRatio="xMidYMid meet" version="1.0"><defs><clipPath id="3c02d46165"><path d="M 385 21.757812 L 425 21.757812 L 425 86 L 385 86 Z M 385 21.757812 " clip-rule="nonzero"/></clipPath><clipPath id="f51a882e21"><path d="M 93.136719 280 L 124 280 L 124 308 L 93.136719 308 Z M 93.136719 280 " clip-rule="nonzero"/></clipPath><clipPath id="dc0ee2d5b6"><path d="M 678 288 L 717.136719 288 L 717.136719 313 L 678 313 Z M 678 288 " clip-rule="nonzero"/></clipPath></defs><g clip-path="url(#3c02d46165)"><path fill="#3b3f3f" d="M 385.304688 53.339844 C 385.304688 39.871094 397.402344 31.453125 405.058594 21.960938 C 412.867188 31.300781 424.046875 40.175781 424.660156 53.339844 C 425.882812 67.421875 412.867188 76.148438 404.90625 85.941406 C 397.097656 76.148438 384.234375 67.421875 385.304688 53.339844 Z M 385.304688 53.339844 " fill-opacity="1" fill-rule="nonzero"/></g><path fill="#3b3f3f" d="M 291.128906 88.851562 C 288.988281 67.726562 306.289062 52.882812 318.234375 38.035156 C 332.628906 50.890625 352.074219 62.984375 353.453125 84.257812 C 355.75 105.839844 338.140625 120.996094 325.890625 136.148438 C 311.648438 122.832031 291.742188 110.433594 291.128906 88.851562 Z M 291.128906 88.851562 " fill-opacity="1" fill-rule="nonzero"/><path fill="#3b3f3f" d="M 456.203125 83.800781 C 457.886719 62.675781 477.183594 50.585938 491.730469 38.035156 C 503.671875 52.726562 521.4375 67.421875 518.679688 88.546875 C 518.375 110.128906 498.160156 122.527344 484.074219 135.6875 C 471.363281 120.84375 453.601562 105.6875 456.203125 83.800781 Z M 456.203125 83.800781 " fill-opacity="1" fill-rule="nonzero"/><path fill="#3b3f3f" d="M 237.996094 65.738281 C 246.109375 68.800781 256.21875 70.332031 261.117188 78.441406 C 264.027344 87.167969 261.269531 96.503906 260.964844 105.535156 C 251.164062 104.921875 242.28125 100.945312 234.167969 95.890625 C 235.085938 85.789062 236.3125 75.6875 237.996094 65.738281 Z M 237.996094 65.738281 " fill-opacity="1" fill-rule="nonzero"/><path fill="#3b3f3f" d="M 548.847656 78.289062 C 553.898438 71.554688 562.320312 68.492188 569.210938 63.902344 C 573.039062 73.851562 575.335938 84.414062 575.949219 95.28125 C 567.835938 100.332031 558.953125 104.3125 549.460938 106.300781 C 548.847656 97.117188 545.785156 87.320312 548.847656 78.289062 Z M 548.847656 78.289062 " fill-opacity="1" fill-rule="nonzero"/><path fill="#3b3f3f" d="M 178.429688 142.578125 C 182.5625 132.015625 191.289062 124.363281 198.179688 115.789062 C 207.523438 125.585938 221.457031 135.078125 219.464844 150.6875 C 219.773438 164.769531 206.605469 172.882812 198.335938 182.222656 C 188.6875 171.199219 173.988281 159.261719 178.429688 142.578125 Z M 178.429688 142.578125 " fill-opacity="1" fill-rule="nonzero"/><path fill="#3b3f3f" d="M 589.425781 150.230469 C 588.964844 135.230469 602.289062 125.433594 611.628906 115.636719 C 620.050781 126.964844 634.90625 137.679688 631.84375 153.75 C 629.085938 165.535156 618.671875 173.34375 611.171875 182.375 C 602.441406 172.882812 590.191406 164.3125 589.425781 150.230469 Z M 589.425781 150.230469 " fill-opacity="1" fill-rule="nonzero"/><path fill="#3b3f3f" d="M 261.117188 149.617188 C 283.933594 161.097656 311.804688 175.027344 316.242188 203.039062 C 322.675781 229.671875 303.382812 251.863281 290.058594 272.527344 C 267.550781 259.519531 238.300781 246.046875 235.546875 216.660156 C 230.03125 190.640625 249.019531 170.128906 261.117188 149.617188 Z M 261.117188 149.617188 " fill-opacity="1" fill-rule="nonzero"/><path fill="#3b3f3f" d="M 493.414062 202.425781 C 498.160156 174.414062 526.183594 161.558594 548.539062 149.464844 C 556.503906 162.78125 566.148438 175.332031 572.121094 189.875 C 579.167969 210.230469 573.5 234.875 556.65625 248.804688 C 545.324219 258.140625 532.308594 265.183594 519.753906 272.683594 C 506.734375 251.710938 486.371094 229.363281 493.414062 202.425781 Z M 493.414062 202.425781 " fill-opacity="1" fill-rule="nonzero"/><path fill="#3b3f3f" d="M 132.03125 155.433594 C 139.839844 156.046875 147.648438 156.964844 155.457031 157.730469 C 157.449219 166.453125 159.441406 175.027344 161.125 183.90625 C 151.9375 182.832031 142.902344 181.300781 133.867188 179.007812 C 133.101562 171.046875 132.488281 163.242188 132.03125 155.433594 Z M 132.03125 155.433594 " fill-opacity="1" fill-rule="nonzero"/><path fill="#3b3f3f" d="M 126.824219 208.242188 C 145.964844 208.546875 168.933594 213.597656 177.355469 232.886719 C 187.769531 249.722656 178.273438 269.3125 173.222656 286.152344 C 156.835938 280.183594 136.316406 278.039062 126.210938 261.8125 C 115.644531 245.4375 123.453125 225.539062 126.824219 208.242188 Z M 126.824219 208.242188 " fill-opacity="1" fill-rule="nonzero"/><path fill="#3b3f3f" d="M 632.148438 232.425781 C 641.03125 214.058594 663.082031 211.148438 680.382812 205.179688 C 685.589844 222.78125 695.238281 243.445312 684.058594 260.742188 C 674.71875 278.191406 653.28125 280.183594 636.4375 286.304688 C 631.535156 269.160156 622.042969 249.417969 632.148438 232.425781 Z M 632.148438 232.425781 " fill-opacity="1" fill-rule="nonzero"/><path fill="#3b3f3f" d="M 204.917969 280.640625 C 199.40625 269.007812 207.980469 257.988281 213.035156 248.039062 C 221.609375 255.386719 236.3125 260.4375 236.3125 273.90625 C 235.085938 282.476562 230.492188 289.976562 227.121094 297.9375 C 219.464844 292.734375 209.820312 288.90625 204.917969 280.640625 Z M 204.917969 280.640625 " fill-opacity="1" fill-rule="nonzero"/><path fill="#3b3f3f" d="M 573.652344 273.601562 C 573.195312 260.4375 587.589844 255.078125 596.011719 247.730469 C 600.757812 256.917969 609.179688 266.558594 605.65625 277.578125 C 602.59375 288.292969 590.652344 291.96875 582.382812 297.785156 C 579.320312 289.976562 574.113281 282.324219 573.652344 273.601562 Z M 573.652344 273.601562 " fill-opacity="1" fill-rule="nonzero"/><g clip-path="url(#f51a882e21)"><path fill="#3b3f3f" d="M 93.136719 280.027344 C 100.179688 282.171875 108.601562 281.558594 114.574219 286.304688 C 120.546875 291.816406 121.3125 300.539062 123.609375 307.886719 C 113.960938 306.816406 104.464844 304.976562 95.277344 301.917969 C 94.359375 294.570312 93.746094 287.222656 93.136719 280.027344 Z M 93.136719 280.027344 " fill-opacity="1" fill-rule="nonzero"/></g><path fill="#3b3f3f" d="M 330.636719 282.019531 C 348.402344 291.050781 369.6875 300.691406 375.351562 321.96875 C 382.242188 343.550781 366.164062 362.222656 356.671875 379.980469 C 339.367188 370.335938 318.234375 361.304688 312.261719 340.640625 C 304.300781 318.90625 321.144531 300.082031 330.636719 282.019531 Z M 330.636719 282.019531 " fill-opacity="1" fill-rule="nonzero"/><path fill="#3b3f3f" d="M 434.152344 322.886719 C 438.898438 301 461.257812 291.203125 479.171875 282.171875 C 489.433594 300.539062 506.429688 321.050781 496.628906 343.246094 C 490.046875 362.683594 469.832031 370.796875 453.140625 379.828125 C 443.035156 362.53125 428.335938 344.316406 434.152344 322.886719 Z M 434.152344 322.886719 " fill-opacity="1" fill-rule="nonzero"/><g clip-path="url(#dc0ee2d5b6)"><path fill="#3b3f3f" d="M 678.546875 310.640625 C 683.292969 301 690.183594 292.886719 700.292969 288.753906 C 705.804688 291.203125 711.46875 293.5 717.136719 295.949219 C 713.460938 301.457031 709.632812 306.96875 705.957031 312.480469 C 696.769531 312.019531 687.582031 311.40625 678.546875 310.640625 Z M 678.546875 310.640625 " fill-opacity="1" fill-rule="nonzero"/></g><path fill="#3b3f3f" d="M 642.867188 188.496094 C 645.625 178.242188 650.832031 168.75 659.863281 162.78125 C 665.835938 164.007812 671.808594 165.230469 677.78125 166.453125 C 675.179688 172.578125 672.574219 178.699219 669.972656 184.824219 C 660.9375 186.351562 651.902344 187.578125 642.867188 188.496094 Z M 642.867188 188.496094 " fill-opacity="1" fill-rule="nonzero"/><path fill="#3b3f3f" d="M 107.222656 332.070312 C 126.515625 339.265625 149.640625 345.539062 158.0625 366.511719 C 168.320312 383.652344 162.042969 403.859375 158.828125 422.074219 C 141.21875 414.878906 119.78125 409.980469 109.980469 391.765625 C 98.1875 374.011719 103.546875 351.664062 107.222656 332.070312 Z M 107.222656 332.070312 " fill-opacity="1" fill-rule="nonzero"/><path fill="#3b3f3f" d="M 648.378906 366.511719 C 658.792969 349.214844 679.3125 343.398438 697.074219 336.816406 C 699.832031 355.335938 706.417969 375.542969 696.003906 392.992188 C 687.429688 413.652344 664 418.859375 645.625 426.972656 C 641.644531 407.226562 635.671875 384.417969 648.378906 366.511719 Z M 648.378906 366.511719 " fill-opacity="1" fill-rule="nonzero"/><path fill="#3b3f3f" d="M 597.234375 447.941406 C 604.277344 442.277344 613.621094 441.054688 622.042969 438.296875 C 622.347656 449.011719 627.859375 461.5625 620.359375 470.898438 C 614.234375 479.625 602.59375 479.164062 593.40625 482.074219 C 593.253906 471.054688 587.433594 456.664062 597.234375 447.941406 Z M 597.234375 447.941406 " fill-opacity="1" fill-rule="nonzero"/><path fill="#3b3f3f" d="M 175.976562 449.316406 C 186.542969 451.921875 196.496094 456.054688 205.378906 462.328125 C 204.917969 472.738281 204.308594 483.144531 203.234375 493.402344 C 194.046875 489.878906 181.644531 490.035156 176.132812 480.542969 C 170.160156 471.054688 174.90625 459.421875 175.976562 449.316406 Z M 175.976562 449.316406 " fill-opacity="1" fill-rule="nonzero"/><path fill="#3b3f3f" d="M 257.59375 326.558594 C 258.667969 321.96875 257.289062 318.140625 254.992188 314.773438 C 250.859375 308.804688 241.976562 308.957031 238.300781 315.082031 C 236.921875 317.375 235.851562 319.980469 235.546875 322.886719 C 232.789062 344.316406 236.003906 365.898438 240.75 386.714844 C 249.019531 367.582031 255.296875 347.222656 257.59375 326.558594 Z M 257.59375 326.558594 " fill-opacity="1" fill-rule="nonzero"/><path fill="#3b3f3f" d="M 552.214844 326.714844 C 552.675781 323.039062 551.601562 319.824219 550.070312 316.765625 C 546.089844 309.417969 535.675781 309.265625 531.695312 316.613281 C 530.625 318.449219 530.011719 320.4375 530.164062 322.734375 C 530.472656 344.773438 538.128906 365.898438 546.703125 385.949219 C 548.847656 366.511719 552.523438 346.613281 552.214844 326.714844 Z M 552.214844 326.714844 " fill-opacity="1" fill-rule="nonzero"/><path fill="#3b3f3f" d="M 365.550781 533.964844 C 367.082031 512.992188 375.65625 493.402344 386.070312 475.339844 C 359.886719 437.839844 323.898438 407.226562 284.699219 384.265625 C 284.851562 394.828125 283.167969 406.460938 289.90625 415.644531 C 302.003906 435.234375 319 451.003906 332.476562 469.523438 C 327.574219 474.269531 322.367188 483.296875 314.101562 479.320312 C 289.445312 467.53125 268.007812 449.011719 250.398438 428.195312 C 228.960938 402.328125 225.898438 367.734375 222.070312 335.898438 C 221.917969 324.417969 205.074219 315.386719 199.253906 328.246094 C 192.976562 353.960938 200.171875 380.746094 203.082031 406.613281 C 207.828125 445.492188 227.429688 480.847656 252.847656 509.933594 C 282.554688 543.605469 316.703125 572.839844 348.246094 604.832031 C 357.128906 581.871094 363.867188 558.300781 365.550781 533.964844 Z M 365.550781 533.964844 " fill-opacity="1" fill-rule="nonzero"/><path fill="#3b3f3f" d="M 586.363281 379.828125 C 582.535156 412.125 578.554688 445.796875 562.320312 474.726562 C 534.144531 525.699219 487.59375 562.125 447.167969 602.535156 C 435.53125 614.320312 420.066406 624.425781 416.390625 641.566406 C 404.140625 687.179688 392.503906 733.710938 389.746094 781.007812 L 389.746094 786.367188 L 382.703125 786.367188 C 354.21875 788.050781 325.738281 786.214844 297.257812 786.976562 C 298.632812 783 300.011719 779.019531 301.390625 775.039062 C 320.53125 710.292969 348.859375 648.609375 371.21875 584.933594 C 382.546875 556.003906 377.035156 522.941406 392.65625 495.390625 C 411.644531 456.972656 446.710938 430.796875 479.324219 404.777344 C 485.910156 399.726562 493.414062 396.359375 500.609375 392.683594 C 504.746094 429.417969 469.679688 450.695312 452.070312 478.09375 C 457.582031 483.605469 464.472656 492.941406 473.199219 486.511719 C 508.421875 466.613281 543.027344 437.683594 554.054688 397.125 C 560.023438 378.449219 558.492188 358.398438 563.851562 339.722656 C 567.070312 329.46875 580.390625 325.949219 585.902344 336.507812 C 589.273438 350.898438 587.589844 365.59375 586.363281 379.828125 Z M 586.363281 379.828125 " fill-opacity="1" fill-rule="nonzero"/><path fill="#3b3f3f" d="M 266.9375 432.480469 C 273.367188 402.175781 289.597656 371.867188 282.863281 340.335938 C 280.410156 339.265625 275.511719 336.96875 272.910156 335.898438 C 264.792969 358.550781 256.675781 381.359375 247.183594 403.550781 C 253.308594 413.5 259.890625 423.144531 266.9375 432.480469 Z M 266.9375 432.480469 " fill-opacity="1" fill-rule="nonzero"/><path fill="#3b3f3f" d="M 524.804688 432.789062 C 530.929688 421.765625 540.425781 411.050781 541.191406 398.195312 C 534.757812 376 526.03125 354.265625 516.230469 333.140625 C 511.484375 342.019531 503.519531 351.355469 507.042969 362.222656 C 511.328125 386.101562 518.988281 409.214844 524.804688 432.789062 Z M 524.804688 432.789062 " fill-opacity="1" fill-rule="nonzero"/><path fill="#3b3f3f" d="M 435.226562 632.84375 C 420.066406 680.445312 410.878906 729.730469 404.140625 779.019531 C 403.832031 781.007812 403.222656 784.988281 402.914062 787.132812 C 433.082031 786.976562 463.402344 787.132812 493.566406 786.976562 C 492.648438 783 491.730469 779.019531 490.65625 775.191406 C 478.101562 725.753906 455.746094 679.527344 435.226562 632.84375 Z M 435.226562 632.84375 " fill-opacity="1" fill-rule="nonzero"/><path fill="#3b3f3f" d="M 351.308594 191.097656 C 351.464844 154.515625 384.234375 131.402344 405.210938 105.535156 C 426.648438 131.097656 456.96875 155.128906 458.808594 191.097656 C 462.023438 229.363281 426.496094 253.242188 405.058594 279.875 C 383.46875 253.394531 348.554688 229.519531 351.308594 191.097656 Z M 351.308594 191.097656 " fill-opacity="1" fill-rule="nonzero"/></svg>